<?xml version="1.0" encoding="utf-8"?>
<!-- Generator: Adobe Illustrator 27.6.1, SVG Export Plug-In . SVG Version: 6.00 Build 0)  -->
<svg version="1.1" id="Layer_1" xmlns="http://www.w3.org/2000/svg" xmlns:xlink="http://www.w3.org/1999/xlink" x="0px" y="0px"
	 viewBox="0 0 500 530" style="enable-background:new 0 0 500 530;" xml:space="preserve">
<style type="text/css">
	.st0{fill-rule:evenodd;clip-rule:evenodd;fill:#FCEF58;}
	.st1{fill-rule:evenodd;clip-rule:evenodd;fill:#42C0EF;}
	.st2{fill-rule:evenodd;clip-rule:evenodd;fill:#FCEE2D;fill-opacity:0.502;}
	.st3{fill-rule:evenodd;clip-rule:evenodd;fill:#3F4196;}
	.st4{fill-rule:evenodd;clip-rule:evenodd;fill:#00A959;}
	.st5{fill-rule:evenodd;clip-rule:evenodd;fill:#ED3438;}
	.st6{fill-rule:evenodd;clip-rule:evenodd;fill:#2B2C2B;}
	.st7{fill:#2B2C2B;}
	.st8{fill:#C7EAFB;}
	.st9{fill:#616262;}
</style>
<g>
	<path class="st0" d="M250,235.47v44.78c-0.13,0.03-0.26,0.07-0.39,0.11l-0.94,0.27v0.78l-15.09-48.04
		C238.88,234.47,244.36,235.17,250,235.47z"/>
	<path class="st0" d="M245.73,279.26c-0.76-0.21-1.53-0.4-2.29-0.58l-40.9-58.73c4.47,2.79,9.32,6.48,14.52,8.51
		c1.1,0.44,2.21,0.85,3.33,1.25L245.73,279.26z"/>
	<path class="st0" d="M239.68,277.81c-2.03-0.44-4.05-0.82-6.08-1.16L96.9,169.12l17.96-27.17L239.68,277.81z"/>
</g>
<g>
	<path class="st0" d="M249.92,235.47v44.78c0.13,0.03,0.26,0.07,0.39,0.11l0.94,0.27v0.78l15.09-48.04
		C261.04,234.47,255.56,235.17,249.92,235.47z"/>
	<path class="st0" d="M254.18,279.26c0.76-0.21,1.53-0.4,2.29-0.58l40.9-58.73c-4.47,2.79-9.32,6.48-14.52,8.51
		c-1.1,0.44-2.21,0.85-3.33,1.25L254.18,279.26z"/>
	<path class="st0" d="M260.24,277.81c2.03-0.44,4.05-0.82,6.08-1.16l136.7-107.53l-17.96-27.17L260.24,277.81z"/>
</g>
<g>
	<g>
		<path class="st1" d="M319.26,145.4c-0.54-0.52-1.13-0.95-1.8-1.28c-0.47-0.23-0.97-0.41-1.51-0.54c-1.64-0.85-2.48-2.12-2.48-3.82
			c0-0.43,0.12-0.96,0.35-1.59c0.22-0.63,0.34-1.06,0.34-1.28c-0.28-0.1-0.83,0.12-1.66,0.65c-0.83,0.53-1.47,1.06-1.94,1.59
			c-0.73,1.27-1.83,3.08-3.3,5.41c-1.19,1.39-2.2,2.07-3.04,2.07c-0.55,0-0.96-0.16-1.23-0.48c-0.23-0.17-0.41-0.52-0.54-1.05
			c-0.21-0.76-0.3-1.9-0.3-3.41v-2.24l-0.83-0.16c-0.37,0.32-0.65,1.06-0.83,2.23v2.4l-0.69-0.16l-1.1-3.99
			c-0.18-0.63-0.6-1.22-1.24-1.75c-1.38-1.17-2.48-2.45-3.31-3.82c-0.27-0.85-0.41-1.49-0.41-1.92s0.1-0.73,0.28-0.88
			c0.18-0.16,0.51-0.38,0.96-0.63c0.46-0.27,0.83-0.45,1.11-0.56c-1.19-0.96-1.79-1.76-1.79-2.4v-2.07
			c-1.47-2.01-2.9-3.34-4.29-3.98c-0.09-0.32-0.13-0.53-0.13-0.65c-0.09-1.27-0.26-2.81-0.49-4.61c-0.22-1.81-0.6-3.03-1.1-3.67
			c-0.51-0.65-1.08-0.96-1.73-0.96c-4.42,0.84-8.55,1.27-12.42,1.27c-0.83,0.96-1.47,1.54-1.92,1.75c-0.46,0.22-0.96,0.32-1.52,0.32
			c-0.37,0-0.91-0.1-1.66-0.32l-0.41,4.95c-0.09,1.59-0.18,2.76-0.28,3.51c-0.91,4.14-1.63,6.48-2.13,7.01
			c-0.51,0.53-1.03,0.91-1.58,1.11c-2.76,0.43-4.98,0.7-6.62,0.8c-1.57,0.53-2.58,0.91-3.04,1.11c-1.92-0.31-4.12-0.79-6.55-1.42
			c-2.44-0.63-4.3-1.11-5.59-1.44c-0.55,0.1-1.24,1.28-2.07,3.51s-1.66,3.34-2.48,3.34c-1.1-0.84-2.11-1.65-3.03-2.38
			c-1.56-1.28-2.53-2.12-2.9-2.55c-2.39-0.85-4.09-1.54-5.1-2.07c-1.38-0.74-2.07-1.59-2.07-2.55l1.24-7.49
			c-1.11-0.32-1.84-0.48-2.2-0.48h-2.91l-15.45,5.26c-1.38-0.1-2.85-0.75-4.41-1.92c-0.1,1.06-0.41,2.07-0.97,3.03
			c-0.55,0.96-1.1,1.65-1.66,2.07c-0.73,0.57-1.39,1.17-1.97,1.79c-2.63,2.8-3.96,6.18-3.96,10.17c0,0-1.01,0.53-3.03,1.59
			s-3.54,2.66-4.55,4.78c-0.37,0.63-1.66,2.12-3.86,4.47c-1.38,1.41-2.33,2.77-2.84,4.05c-0.15,0.35-0.26,0.7-0.34,1.04
			c-0.37,0.85-0.55,2.07-0.55,3.67c0.09,0.32,0.13,1.11,0.13,2.4v2.23l-0.55,6.85c2.3,0.22,3.63,0.43,4.01,0.63
			c0.73,0.32,1.66,1.44,2.75,3.35c0.74-0.85,1.19-1.27,1.38-1.27c0.54-0.21,1.28-0.31,2.24-0.32h0.11c0.56,0.1,1.39,0.16,2.48,0.16
			h7.45v-22.3h2.9c0.58,0.38,1.86,1.68,3.85,3.94c0.84,0.96,1.81,2.09,2.91,3.39c3.69,4.35,5.8,6.96,6.36,7.81
			c4.69-3.41,9.29-7.18,13.79-11.32c5.15,0,9.47,1.27,12.97,3.82c2.29,1.7,4.18,3.72,5.65,6.06c1.47,2.33,2.2,4.09,2.2,5.26
			c0,1.06-0.23,2.38-0.68,3.98c-0.74,1.81-1.67,3.78-2.76,5.91c0.18,2.12,1.52,5.04,4.01,8.76c2.02,3.08,4.59,6.11,7.72,9.09
			c3.96,3.72,7.13,5.57,9.52,5.57c2.57,0,4.97-1.27,7.17-3.82c-3.13-4.68-4.7-7.06-4.7-7.16c3.68-10.21,5.53-16.74,5.53-19.61
			c0.09-1.17,0.55-2.23,1.38-3.19c1.29-1.49,1.92-2.23,1.92-2.23c-1.64-4.37-2.52-6.59-2.62-6.7c-1.01-2.12-1.97-3.83-2.9-5.1
			c-0.73-1.92-2.02-4.99-3.86-9.25c-0.65-1.59-0.97-2.49-0.97-2.71c-0.73-1.27-1.51-2.86-2.34-4.78c-0.46-1.06-0.83-1.75-1.11-2.07
			c0.28-0.43,0.56-0.63,0.83-0.63c0.28,0,0.51,0.21,0.69,0.63c0.55,0.63,1.14,1.59,1.79,2.88c0.65,1.27,1.16,2.01,1.52,2.23
			c0.28-0.31,0.41-0.79,0.41-1.44c0.18-1.06,0.28-1.85,0.28-2.38v-1.44c0.27-0.32,0.46-0.48,0.55-0.48c0.18,0,0.41,0.16,0.69,0.48
			v1.44c0,1.27,0.11,2.28,0.34,3.03c0.23,0.74,0.67,1.11,1.31,1.11c0.18,0.53,0.52,1.06,1.03,1.59c0.5,0.53,0.8,1.32,0.89,2.38
			c0.1,1.06,0.62,2.02,1.59,2.88c0.96,0.84,1.45,1.65,1.45,2.38c0.18,1.08,0.46,1.99,0.83,2.8c0.37,0.8,1.14,1.57,2.35,2.31
			c0.91,0.63,1.42,1.97,1.51,3.99c0.28,1.06,0.56,1.8,0.83,2.23c0.28,0.43,0.75,0.88,1.45,1.35c0.69,0.48,1.24,1.04,1.66,1.68
			c0.41,0.63,0.8,1.54,1.18,2.71c0.37,1.59,0.6,2.81,0.68,3.67c0.27,2.24,0.69,4.08,1.28,5.52c0.44,1.1,0.97,1.96,1.62,2.6
			c5.89-5.09,9.29-7.91,10.22-8.45c1.66-0.96,2.85-2.23,3.58-3.82c0.65-1.37,1.57-2.55,2.78-3.52c1.22-1,2.73-1.79,4.54-2.38
			c0.65-0.43,1.03-0.74,1.17-0.96c0.15-0.21,0.21-0.63,0.21-1.27c0-0.43-0.05-1.06-0.13-1.9c-0.1-0.85-0.15-1.49-0.15-1.92
			c0-0.85,0.15-1.44,0.41-1.75c0.65-0.53,1.59-1.26,2.84-2.15c1.24-0.91,2.18-1.57,2.82-1.99c1.29-1.17,1.94-2.02,1.94-2.55v-0.03
			C320.65,147.18,320.18,146.3,319.26,145.4z"/>
		<polygon class="st1" points="270.14,130.03 270.01,130.99 269.6,130.99 269.6,129.24 269.73,127.65 270.14,127.65 270.29,129.72 
			269.88,128.92 269.88,130.2 		"/>
	</g>
	<path class="st1" d="M303.4,180.25l-1.39,0.8c-1.28,0.63-2.44,1.17-3.45,1.59c-0.15,0.03-0.33,0.08-0.55,0.17H298
		c-0.57,0.19-1.41,0.6-2.47,1.18c-1.47,0.79-2.52,1.19-3.17,1.19c-0.38,0-0.72-0.1-1.03-0.32c-0.33-0.21-0.58-0.45-0.77-0.71
		c-0.18-0.27-0.37-0.51-0.55-0.71c-0.46-0.54-0.79-0.85-0.96-0.96c0,0.21-0.15,0.48-0.43,0.79c-0.55,0.96-0.83,1.44-0.83,1.44
		c0.19,0.31,0.28,0.58,0.28,0.79l0.55,0.65h0.97c0.37,0,0.65,0.08,0.83,0.23c0.18,0.17,0.37,0.43,0.55,0.8
		c0.19,0.38,0.38,0.66,0.56,0.88c0.9,0.54,1.97,0.96,3.23,1.22c1.17,0.25,2.48,0.38,3.94,0.38v2.38c-1.29,2.66-3.08,4.78-5.38,6.37
		c-1.05,0.49-2.44,1.15-4.16,2.01h-0.01c-0.55,0.27-1.13,0.56-1.75,0.87c-0.93,1.06-1.38,2.71-1.38,4.94v1.92
		c-0.19,0.63-0.28,1.06-0.28,1.27c-0.28,0.96-0.41,1.75-0.41,2.4c0,1.8,0.69,2.86,2.07,3.19c0.46-0.74,1.14-1.76,2.07-3.03
		c1.38-1.39,2.39-2.45,3.03-3.19l4.83-5.1c1.46-1.59,2.67-3.67,3.58-6.22c0.1-0.74,0.88-4.2,2.35-10.36
		c0.83-3.39,1.29-5.41,1.38-6.05v-1.42C304.45,179.72,304.04,179.93,303.4,180.25z"/>
	<g>
		<path class="st1" d="M319.26,145.4c-0.54-0.52-1.13-0.95-1.8-1.28c-0.47-0.23-0.97-0.41-1.51-0.54c-1.64-0.85-2.48-2.12-2.48-3.82
			c0-0.43,0.12-0.96,0.35-1.59c0.22-0.63,0.34-1.06,0.34-1.28c-0.28-0.1-0.83,0.12-1.66,0.65c-0.83,0.53-1.47,1.06-1.94,1.59
			c-0.73,1.27-1.83,3.08-3.3,5.41c-1.19,1.39-2.2,2.07-3.04,2.07c-0.55,0-0.96-0.16-1.23-0.48c-0.23-0.17-0.41-0.52-0.54-1.05
			c-0.21-0.76-0.3-1.9-0.3-3.41v-2.24l-0.83-0.16c-0.37,0.32-0.65,1.06-0.83,2.23v2.4l-0.69-0.16l-1.1-3.99
			c-0.18-0.63-0.6-1.22-1.24-1.75c-1.38-1.17-2.48-2.45-3.31-3.82c-0.27-0.85-0.41-1.49-0.41-1.92s0.1-0.73,0.28-0.88
			c0.18-0.16,0.51-0.38,0.96-0.63c0.46-0.27,0.83-0.45,1.11-0.56c-1.19-0.96-1.79-1.76-1.79-2.4v-2.07
			c-1.47-2.01-2.9-3.34-4.29-3.98c-0.09-0.32-0.13-0.53-0.13-0.65c-0.09-1.27-0.26-2.81-0.49-4.61c-0.22-1.81-0.6-3.03-1.1-3.67
			c-0.51-0.65-1.08-0.96-1.73-0.96c-4.42,0.84-8.55,1.27-12.42,1.27c-0.83,0.96-1.47,1.54-1.92,1.75c-0.46,0.22-0.96,0.32-1.52,0.32
			c-0.37,0-0.91-0.1-1.66-0.32l-0.41,4.95c-0.09,1.59-0.18,2.76-0.28,3.51c-0.91,4.14-1.63,6.48-2.13,7.01
			c-0.51,0.53-1.03,0.91-1.58,1.11c-2.76,0.43-4.98,0.7-6.62,0.8c-1.57,0.53-2.58,0.91-3.04,1.11c-1.92-0.31-4.12-0.79-6.55-1.42
			c-2.44-0.63-4.3-1.11-5.59-1.44c-0.55,0.1-1.24,1.28-2.07,3.51s-1.66,3.34-2.48,3.34c-1.1-0.84-2.11-1.65-3.03-2.38
			c-1.56-1.28-2.53-2.12-2.9-2.55c-2.39-0.85-4.09-1.54-5.1-2.07c-1.38-0.74-2.07-1.59-2.07-2.55l1.24-7.49
			c-1.11-0.32-1.84-0.48-2.2-0.48h-2.91l-15.45,5.26c-1.38-0.1-2.85-0.75-4.41-1.92c-0.1,1.06-0.41,2.07-0.97,3.03
			c-0.55,0.96-1.1,1.65-1.66,2.07c-0.73,0.57-1.39,1.17-1.97,1.79c-2.63,2.8-3.96,6.18-3.96,10.17c0,0-1.01,0.53-3.03,1.59
			s-3.54,2.66-4.55,4.78c-0.37,0.63-1.66,2.12-3.86,4.47c-1.38,1.41-2.33,2.77-2.84,4.05c-0.15,0.35-0.26,0.7-0.34,1.04
			c-0.37,0.85-0.55,2.07-0.55,3.67c0.09,0.32,0.13,1.11,0.13,2.4v2.23l-0.55,6.85c2.3,0.22,3.63,0.43,4.01,0.63
			c0.73,0.32,1.66,1.44,2.75,3.35c0.74-0.85,1.19-1.27,1.38-1.27c0.54-0.21,1.28-0.31,2.24-0.32h0.11c0.56,0.1,1.39,0.16,2.48,0.16
			h7.45v-22.3h2.9c0.58,0.38,1.86,1.68,3.85,3.94c0.84,0.96,1.81,2.09,2.91,3.39c3.69,4.35,5.8,6.96,6.36,7.81
			c4.69-3.41,9.29-7.18,13.79-11.32c5.15,0,9.47,1.27,12.97,3.82c2.29,1.7,4.18,3.72,5.65,6.06c1.47,2.33,2.2,4.09,2.2,5.26
			c0,1.06-0.23,2.38-0.68,3.98c-0.74,1.81-1.67,3.78-2.76,5.91c0.18,2.12,1.52,5.04,4.01,8.76c2.02,3.08,4.59,6.11,7.72,9.09
			c3.96,3.72,7.13,5.57,9.52,5.57c2.57,0,4.97-1.27,7.17-3.82c-3.13-4.68-4.7-7.06-4.7-7.16c3.68-10.21,5.53-16.74,5.53-19.61
			c0.09-1.17,0.55-2.23,1.38-3.19c1.29-1.49,1.92-2.23,1.92-2.23c-1.64-4.37-2.52-6.59-2.62-6.7c-1.01-2.12-1.97-3.83-2.9-5.1
			c-0.73-1.92-2.02-4.99-3.86-9.25c-0.65-1.59-0.97-2.49-0.97-2.71c-0.73-1.27-1.51-2.86-2.34-4.78c-0.46-1.06-0.83-1.75-1.11-2.07
			c0.28-0.43,0.56-0.63,0.83-0.63c0.28,0,0.51,0.21,0.69,0.63c0.55,0.63,1.14,1.59,1.79,2.88c0.65,1.27,1.16,2.01,1.52,2.23
			c0.28-0.31,0.41-0.79,0.41-1.44c0.18-1.06,0.28-1.85,0.28-2.38v-1.44c0.27-0.32,0.46-0.48,0.55-0.48c0.18,0,0.41,0.16,0.69,0.48
			v1.44c0,1.27,0.11,2.28,0.34,3.03c0.23,0.74,0.67,1.11,1.31,1.11c0.18,0.53,0.52,1.06,1.03,1.59c0.5,0.53,0.8,1.32,0.89,2.38
			c0.1,1.06,0.62,2.02,1.59,2.88c0.96,0.84,1.45,1.65,1.45,2.38c0.18,1.08,0.46,1.99,0.83,2.8c0.37,0.8,1.14,1.57,2.35,2.31
			c0.91,0.63,1.42,1.97,1.51,3.99c0.28,1.06,0.56,1.8,0.83,2.23c0.28,0.43,0.75,0.88,1.45,1.35c0.69,0.48,1.24,1.04,1.66,1.68
			c0.41,0.63,0.8,1.54,1.18,2.71c0.37,1.59,0.6,2.81,0.68,3.67c0.27,2.24,0.69,4.08,1.28,5.52c0.44,1.1,0.97,1.96,1.62,2.6
			c5.89-5.09,9.29-7.91,10.22-8.45c1.66-0.96,2.85-2.23,3.58-3.82c0.65-1.37,1.57-2.55,2.78-3.52c1.22-1,2.73-1.79,4.54-2.38
			c0.65-0.43,1.03-0.74,1.17-0.96c0.15-0.21,0.21-0.63,0.21-1.27c0-0.43-0.05-1.06-0.13-1.9c-0.1-0.85-0.15-1.49-0.15-1.92
			c0-0.85,0.15-1.44,0.41-1.75c0.65-0.53,1.59-1.26,2.84-2.15c1.24-0.91,2.18-1.57,2.82-1.99c1.29-1.17,1.94-2.02,1.94-2.55v-0.03
			C320.65,147.18,320.18,146.3,319.26,145.4z"/>
		<polygon class="st1" points="270.14,130.03 270.01,130.99 269.6,130.99 269.6,129.24 269.73,127.65 270.14,127.65 270.29,129.72 
			269.88,128.92 269.88,130.2 		"/>
	</g>
	<path class="st1" d="M303.4,180.25l-1.39,0.8c-1.28,0.63-2.44,1.17-3.45,1.59c-0.15,0.03-0.33,0.08-0.55,0.17H298
		c-0.57,0.19-1.41,0.6-2.47,1.18c-1.47,0.79-2.52,1.19-3.17,1.19c-0.38,0-0.72-0.1-1.03-0.32c-0.33-0.21-0.58-0.45-0.77-0.71
		c-0.18-0.27-0.37-0.51-0.55-0.71c-0.46-0.54-0.79-0.85-0.96-0.96c0,0.21-0.15,0.48-0.43,0.79c-0.55,0.96-0.83,1.44-0.83,1.44
		c0.19,0.31,0.28,0.58,0.28,0.79l0.55,0.65h0.97c0.37,0,0.65,0.08,0.83,0.23c0.18,0.17,0.37,0.43,0.55,0.8
		c0.19,0.38,0.38,0.66,0.56,0.88c0.9,0.54,1.97,0.96,3.23,1.22c1.17,0.25,2.48,0.38,3.94,0.38v2.38c-1.29,2.66-3.08,4.78-5.38,6.37
		c-1.05,0.49-2.44,1.15-4.16,2.01h-0.01c-0.55,0.27-1.13,0.56-1.75,0.87c-0.93,1.06-1.38,2.71-1.38,4.94v1.92
		c-0.19,0.63-0.28,1.06-0.28,1.27c-0.28,0.96-0.41,1.75-0.41,2.4c0,1.8,0.69,2.86,2.07,3.19c0.46-0.74,1.14-1.76,2.07-3.03
		c1.38-1.39,2.39-2.45,3.03-3.19l4.83-5.1c1.46-1.59,2.67-3.67,3.58-6.22c0.1-0.74,0.88-4.2,2.35-10.36
		c0.83-3.39,1.29-5.41,1.38-6.05v-1.42C304.45,179.72,304.04,179.93,303.4,180.25z"/>
	<path class="st1" d="M303.4,180.25l-1.39,0.8c-1.28,0.63-2.44,1.17-3.45,1.59c-0.15,0.03-0.33,0.08-0.55,0.17H298
		c-0.57,0.19-1.41,0.6-2.47,1.18c-1.47,0.79-2.52,1.19-3.17,1.19c-0.38,0-0.72-0.1-1.03-0.32c-0.33-0.21-0.58-0.45-0.77-0.71
		c-0.18-0.27-0.37-0.51-0.55-0.71c-0.46-0.54-0.79-0.85-0.96-0.96c0,0.21-0.15,0.48-0.43,0.79c-0.55,0.96-0.83,1.44-0.83,1.44
		c0.19,0.31,0.28,0.58,0.28,0.79l0.55,0.65h0.97c0.37,0,0.65,0.08,0.83,0.23c0.18,0.17,0.37,0.43,0.55,0.8
		c0.19,0.38,0.38,0.66,0.56,0.88c0.9,0.54,1.97,0.96,3.23,1.22c1.17,0.25,2.48,0.38,3.94,0.38v2.38c-1.29,2.66-3.08,4.78-5.38,6.37
		c-1.05,0.49-2.44,1.15-4.16,2.01h-0.01c-0.55,0.27-1.13,0.56-1.75,0.87c-0.93,1.06-1.38,2.71-1.38,4.94v1.92
		c-0.19,0.63-0.28,1.06-0.28,1.27c-0.28,0.96-0.41,1.75-0.41,2.4c0,1.8,0.69,2.86,2.07,3.19c0.46-0.74,1.14-1.76,2.07-3.03
		c1.38-1.39,2.39-2.45,3.03-3.19l4.83-5.1c1.46-1.59,2.67-3.67,3.58-6.22c0.1-0.74,0.88-4.2,2.35-10.36
		c0.83-3.39,1.29-5.41,1.38-6.05v-1.42C304.45,179.72,304.04,179.93,303.4,180.25z"/>
	<g>
		<path class="st1" d="M319.26,145.4c-0.54-0.52-1.13-0.95-1.8-1.28c-0.47-0.23-0.97-0.41-1.51-0.54c-1.64-0.85-2.48-2.12-2.48-3.82
			c0-0.43,0.12-0.96,0.35-1.59c0.22-0.63,0.34-1.06,0.34-1.28c-0.28-0.1-0.83,0.12-1.66,0.65c-0.83,0.53-1.47,1.06-1.94,1.59
			c-0.73,1.27-1.83,3.08-3.3,5.41c-1.19,1.39-2.2,2.07-3.04,2.07c-0.55,0-0.96-0.16-1.23-0.48c-0.23-0.17-0.41-0.52-0.54-1.05
			c-0.21-0.76-0.3-1.9-0.3-3.41v-2.24l-0.83-0.16c-0.37,0.32-0.65,1.06-0.83,2.23v2.4l-0.69-0.16l-1.1-3.99
			c-0.18-0.63-0.6-1.22-1.24-1.75c-1.38-1.17-2.48-2.45-3.31-3.82c-0.27-0.85-0.41-1.49-0.41-1.92s0.1-0.73,0.28-0.88
			c0.18-0.16,0.51-0.38,0.96-0.63c0.46-0.27,0.83-0.45,1.11-0.56c-1.19-0.96-1.79-1.76-1.79-2.4v-2.07
			c-1.47-2.01-2.9-3.34-4.29-3.98c-0.09-0.32-0.13-0.53-0.13-0.65c-0.09-1.27-0.26-2.81-0.49-4.61c-0.22-1.81-0.6-3.03-1.1-3.67
			c-0.51-0.65-1.08-0.96-1.73-0.96c-4.42,0.84-8.55,1.27-12.42,1.27c-0.83,0.96-1.47,1.54-1.92,1.75c-0.46,0.22-0.96,0.32-1.52,0.32
			c-0.37,0-0.91-0.1-1.66-0.32l-0.41,4.95c-0.09,1.59-0.18,2.76-0.28,3.51c-0.91,4.14-1.63,6.48-2.13,7.01
			c-0.51,0.53-1.03,0.91-1.58,1.11c-2.76,0.43-4.98,0.7-6.62,0.8c-1.57,0.53-2.58,0.91-3.04,1.11c-1.92-0.31-4.12-0.79-6.55-1.42
			c-2.44-0.63-4.3-1.11-5.59-1.44c-0.55,0.1-1.24,1.28-2.07,3.51s-1.66,3.34-2.48,3.34c-1.1-0.84-2.11-1.65-3.03-2.38
			c-1.56-1.28-2.53-2.12-2.9-2.55c-2.39-0.85-4.09-1.54-5.1-2.07c-1.38-0.74-2.07-1.59-2.07-2.55l1.24-7.49
			c-1.11-0.32-1.84-0.48-2.2-0.48h-2.91l-15.45,5.26c-1.38-0.1-2.85-0.75-4.41-1.92c-0.1,1.06-0.41,2.07-0.97,3.03
			c-0.55,0.96-1.1,1.65-1.66,2.07c-0.73,0.57-1.39,1.17-1.97,1.79c-2.63,2.8-3.96,6.18-3.96,10.17c0,0-1.01,0.53-3.03,1.59
			s-3.54,2.66-4.55,4.78c-0.37,0.63-1.66,2.12-3.86,4.47c-1.38,1.41-2.33,2.77-2.84,4.05c-0.15,0.35-0.26,0.7-0.34,1.04
			c-0.37,0.85-0.55,2.07-0.55,3.67c0.09,0.32,0.13,1.11,0.13,2.4v2.23l-0.55,6.85c2.3,0.22,3.63,0.43,4.01,0.63
			c0.73,0.32,1.66,1.44,2.75,3.35c0.74-0.85,1.19-1.27,1.38-1.27c0.54-0.21,1.28-0.31,2.24-0.32h0.11c0.56,0.1,1.39,0.16,2.48,0.16
			h7.45v-22.3h2.9c0.58,0.38,1.86,1.68,3.85,3.94c0.84,0.96,1.81,2.09,2.91,3.39c3.69,4.35,5.8,6.96,6.36,7.81
			c4.69-3.41,9.29-7.18,13.79-11.32c5.15,0,9.47,1.27,12.97,3.82c2.29,1.7,4.18,3.72,5.65,6.06c1.47,2.33,2.2,4.09,2.2,5.26
			c0,1.06-0.23,2.38-0.68,3.98c-0.74,1.81-1.67,3.78-2.76,5.91c0.18,2.12,1.52,5.04,4.01,8.76c2.02,3.08,4.59,6.11,7.72,9.09
			c3.96,3.72,7.13,5.57,9.52,5.57c2.57,0,4.97-1.27,7.17-3.82c-3.13-4.68-4.7-7.06-4.7-7.16c3.68-10.21,5.53-16.74,5.53-19.61
			c0.09-1.17,0.55-2.23,1.38-3.19c1.29-1.49,1.92-2.23,1.92-2.23c-1.64-4.37-2.52-6.59-2.62-6.7c-1.01-2.12-1.97-3.83-2.9-5.1
			c-0.73-1.92-2.02-4.99-3.86-9.25c-0.65-1.59-0.97-2.49-0.97-2.71c-0.73-1.27-1.51-2.86-2.34-4.78c-0.46-1.06-0.83-1.75-1.11-2.07
			c0.28-0.43,0.56-0.63,0.83-0.63c0.28,0,0.51,0.21,0.69,0.63c0.55,0.63,1.14,1.59,1.79,2.88c0.65,1.27,1.16,2.01,1.52,2.23
			c0.28-0.31,0.41-0.79,0.41-1.44c0.18-1.06,0.28-1.85,0.28-2.38v-1.44c0.27-0.32,0.46-0.48,0.55-0.48c0.18,0,0.41,0.16,0.69,0.48
			v1.44c0,1.27,0.11,2.28,0.34,3.03c0.23,0.74,0.67,1.11,1.31,1.11c0.18,0.53,0.52,1.06,1.03,1.59c0.5,0.53,0.8,1.32,0.89,2.38
			c0.1,1.06,0.62,2.02,1.59,2.88c0.96,0.84,1.45,1.65,1.45,2.38c0.18,1.08,0.46,1.99,0.83,2.8c0.37,0.8,1.14,1.57,2.35,2.31
			c0.91,0.63,1.42,1.97,1.51,3.99c0.28,1.06,0.56,1.8,0.83,2.23c0.28,0.43,0.75,0.88,1.45,1.35c0.69,0.48,1.24,1.04,1.66,1.68
			c0.41,0.63,0.8,1.54,1.18,2.71c0.37,1.59,0.6,2.81,0.68,3.67c0.27,2.24,0.69,4.08,1.28,5.52c0.44,1.1,0.97,1.96,1.62,2.6
			c5.89-5.09,9.29-7.91,10.22-8.45c1.66-0.96,2.85-2.23,3.58-3.82c0.65-1.37,1.57-2.55,2.78-3.52c1.22-1,2.73-1.79,4.54-2.38
			c0.65-0.43,1.03-0.74,1.17-0.96c0.15-0.21,0.21-0.63,0.21-1.27c0-0.43-0.05-1.06-0.13-1.9c-0.1-0.85-0.15-1.49-0.15-1.92
			c0-0.85,0.15-1.44,0.41-1.75c0.65-0.53,1.59-1.26,2.84-2.15c1.24-0.91,2.18-1.57,2.82-1.99c1.29-1.17,1.94-2.02,1.94-2.55v-0.03
			C320.65,147.18,320.18,146.3,319.26,145.4z"/>
		<polygon class="st1" points="270.14,130.03 270.01,130.99 269.6,130.99 269.6,129.24 269.73,127.65 270.14,127.65 270.29,129.72 
			269.88,128.92 269.88,130.2 		"/>
	</g>
	<g>
		<path class="st1" d="M319.26,145.4c-0.54-0.52-1.13-0.95-1.8-1.28c-0.47-0.23-0.97-0.41-1.51-0.54c-1.64-0.85-2.48-2.12-2.48-3.82
			c0-0.43,0.12-0.96,0.35-1.59c0.22-0.63,0.34-1.06,0.34-1.28c-0.28-0.1-0.83,0.12-1.66,0.65c-0.83,0.53-1.47,1.06-1.94,1.59
			c-0.73,1.27-1.83,3.08-3.3,5.41c-1.19,1.39-2.2,2.07-3.04,2.07c-0.55,0-0.96-0.16-1.23-0.48c-0.23-0.17-0.41-0.52-0.54-1.05
			c-0.21-0.76-0.3-1.9-0.3-3.41v-2.24l-0.83-0.16c-0.37,0.32-0.65,1.06-0.83,2.23v2.4l-0.69-0.16l-1.1-3.99
			c-0.18-0.63-0.6-1.22-1.24-1.75c-1.38-1.17-2.48-2.45-3.31-3.82c-0.27-0.85-0.41-1.49-0.41-1.92s0.1-0.73,0.28-0.88
			c0.18-0.16,0.51-0.38,0.96-0.63c0.46-0.27,0.83-0.45,1.11-0.56c-1.19-0.96-1.79-1.76-1.79-2.4v-2.07
			c-1.47-2.01-2.9-3.34-4.29-3.98c-0.09-0.32-0.13-0.53-0.13-0.65c-0.09-1.27-0.26-2.81-0.49-4.61c-0.22-1.81-0.6-3.03-1.1-3.67
			c-0.51-0.65-1.08-0.96-1.73-0.96c-4.42,0.84-8.55,1.27-12.42,1.27c-0.83,0.96-1.47,1.54-1.92,1.75c-0.46,0.22-0.96,0.32-1.52,0.32
			c-0.37,0-0.91-0.1-1.66-0.32l-0.41,4.95c-0.09,1.59-0.18,2.76-0.28,3.51c-0.91,4.14-1.63,6.48-2.13,7.01
			c-0.51,0.53-1.03,0.91-1.58,1.11c-2.76,0.43-4.98,0.7-6.62,0.8c-1.57,0.53-2.58,0.91-3.04,1.11c-1.92-0.31-4.12-0.79-6.55-1.42
			c-2.44-0.63-4.3-1.11-5.59-1.44c-0.55,0.1-1.24,1.28-2.07,3.51s-1.66,3.34-2.48,3.34c-1.1-0.84-2.11-1.65-3.03-2.38
			c-1.56-1.28-2.53-2.12-2.9-2.55c-2.39-0.85-4.09-1.54-5.1-2.07c-1.38-0.74-2.07-1.59-2.07-2.55l1.24-7.49
			c-1.11-0.32-1.84-0.48-2.2-0.48h-2.91l-15.45,5.26c-1.38-0.1-2.85-0.75-4.41-1.92c-0.1,1.06-0.41,2.07-0.97,3.03
			c-0.55,0.96-1.1,1.65-1.66,2.07c-0.73,0.57-1.39,1.17-1.97,1.79c-2.63,2.8-3.96,6.18-3.96,10.17c0,0-1.01,0.53-3.03,1.59
			s-3.54,2.66-4.55,4.78c-0.37,0.63-1.66,2.12-3.86,4.47c-1.38,1.41-2.33,2.77-2.84,4.05c-0.15,0.35-0.26,0.7-0.34,1.04
			c-0.37,0.85-0.55,2.07-0.55,3.67c0.09,0.32,0.13,1.11,0.13,2.4v2.23l-0.55,6.85c2.3,0.22,3.63,0.43,4.01,0.63
			c0.73,0.32,1.66,1.44,2.75,3.35c0.74-0.85,1.19-1.27,1.38-1.27c0.54-0.21,1.28-0.31,2.24-0.32h0.11c0.56,0.1,1.39,0.16,2.48,0.16
			h7.45v-22.3h2.9c0.58,0.38,1.86,1.68,3.85,3.94c0.84,0.96,1.81,2.09,2.91,3.39c3.69,4.35,5.8,6.96,6.36,7.81
			c4.69-3.41,9.29-7.18,13.79-11.32c5.15,0,9.47,1.27,12.97,3.82c2.29,1.7,4.18,3.72,5.65,6.06c1.47,2.33,2.2,4.09,2.2,5.26
			c0,1.06-0.23,2.38-0.68,3.98c-0.74,1.81-1.67,3.78-2.76,5.91c0.18,2.12,1.52,5.04,4.01,8.76c2.02,3.08,4.59,6.11,7.72,9.09
			c3.96,3.72,7.13,5.57,9.52,5.57c2.57,0,4.97-1.27,7.17-3.82c-3.13-4.68-4.7-7.06-4.7-7.16c3.68-10.21,5.53-16.74,5.53-19.61
			c0.09-1.17,0.55-2.23,1.38-3.19c1.29-1.49,1.92-2.23,1.92-2.23c-1.64-4.37-2.52-6.59-2.62-6.7c-1.01-2.12-1.97-3.83-2.9-5.1
			c-0.73-1.92-2.02-4.99-3.86-9.25c-0.65-1.59-0.97-2.49-0.97-2.71c-0.73-1.27-1.51-2.86-2.34-4.78c-0.46-1.06-0.83-1.75-1.11-2.07
			c0.28-0.43,0.56-0.63,0.83-0.63c0.28,0,0.51,0.21,0.69,0.63c0.55,0.63,1.14,1.59,1.79,2.88c0.65,1.27,1.16,2.01,1.52,2.23
			c0.28-0.31,0.41-0.79,0.41-1.44c0.18-1.06,0.28-1.85,0.28-2.38v-1.44c0.27-0.32,0.46-0.48,0.55-0.48c0.18,0,0.41,0.16,0.69,0.48
			v1.44c0,1.27,0.11,2.28,0.34,3.03c0.23,0.74,0.67,1.11,1.31,1.11c0.18,0.53,0.52,1.06,1.03,1.59c0.5,0.53,0.8,1.32,0.89,2.38
			c0.1,1.06,0.62,2.02,1.59,2.88c0.96,0.84,1.45,1.65,1.45,2.38c0.18,1.08,0.46,1.99,0.83,2.8c0.37,0.8,1.14,1.57,2.35,2.31
			c0.91,0.63,1.42,1.97,1.51,3.99c0.28,1.06,0.56,1.8,0.83,2.23c0.28,0.43,0.75,0.88,1.45,1.35c0.69,0.48,1.24,1.04,1.66,1.68
			c0.41,0.63,0.8,1.54,1.18,2.71c0.37,1.59,0.6,2.81,0.68,3.67c0.27,2.24,0.69,4.08,1.28,5.52c0.44,1.1,0.97,1.96,1.62,2.6
			c5.89-5.09,9.29-7.91,10.22-8.45c1.66-0.96,2.85-2.23,3.58-3.82c0.65-1.37,1.57-2.55,2.78-3.52c1.22-1,2.73-1.79,4.54-2.38
			c0.65-0.43,1.03-0.74,1.17-0.96c0.15-0.21,0.21-0.63,0.21-1.27c0-0.43-0.05-1.06-0.13-1.9c-0.1-0.85-0.15-1.49-0.15-1.92
			c0-0.85,0.15-1.44,0.41-1.75c0.65-0.53,1.59-1.26,2.84-2.15c1.24-0.91,2.18-1.57,2.82-1.99c1.29-1.17,1.94-2.02,1.94-2.55v-0.03
			C320.65,147.18,320.18,146.3,319.26,145.4z"/>
		<polygon class="st1" points="270.14,130.03 270.01,130.99 269.6,130.99 269.6,129.24 269.73,127.65 270.14,127.65 270.29,129.72 
			269.88,128.92 269.88,130.2 		"/>
	</g>
	<path class="st1" d="M302.01,181.06c-1.28,0.63-2.44,1.17-3.45,1.59c-0.15,0.03-0.33,0.08-0.55,0.17H298
		c-0.57,0.19-1.41,0.6-2.47,1.18c-1.47,0.79-2.52,1.19-3.17,1.19c-0.38,0-0.72-0.1-1.03-0.32c-0.33-0.21-0.58-0.45-0.77-0.71
		c-0.18-0.27-0.37-0.51-0.55-0.71c-0.46-0.54-0.79-0.85-0.96-0.96c0,0.21-0.15,0.48-0.43,0.79c-0.55,0.96-0.83,1.44-0.83,1.44
		c0.19,0.31,0.28,0.58,0.28,0.79l0.55,0.65h0.97c0.37,0,0.65,0.08,0.83,0.23c0.18,0.17,0.37,0.43,0.55,0.8
		c0.19,0.38,0.38,0.66,0.56,0.88c0.9,0.54,1.97,0.96,3.23,1.22c1.17,0.25,2.48,0.38,3.94,0.38v2.38c-1.29,2.66-3.08,4.78-5.38,6.37
		c-1.05,0.49-2.44,1.15-4.16,2.01h-0.01c-0.55,0.27-1.13,0.56-1.75,0.87c-0.93,1.06-1.38,2.71-1.38,4.94v1.92
		c-0.19,0.63-0.28,1.06-0.28,1.27c-0.28,0.96-0.41,1.75-0.41,2.4c0,1.8,0.69,2.86,2.07,3.19c0.46-0.74,1.14-1.76,2.07-3.03
		c1.38-1.39,2.39-2.45,3.03-3.19l4.83-5.1c1.46-1.59,2.67-3.67,3.58-6.22c0.1-0.74,0.88-4.2,2.35-10.36
		c0.83-3.39,1.29-5.41,1.38-6.05v-1.42c-0.18,0.1-0.6,0.31-1.24,0.63L302.01,181.06z"/>
	<g>
		<path class="st1" d="M317.46,144.11c-0.47-0.23-0.97-0.41-1.51-0.54c-1.64-0.85-2.48-2.12-2.48-3.82c0-0.43,0.12-0.96,0.35-1.59
			c0.22-0.63,0.34-1.06,0.34-1.28c-0.28-0.1-0.83,0.12-1.66,0.65c-0.83,0.53-1.47,1.06-1.94,1.59c-0.73,1.27-1.83,3.08-3.3,5.41
			c-1.19,1.39-2.2,2.07-3.04,2.07c-0.55,0-0.96-0.16-1.23-0.48c-0.23-0.17-0.41-0.52-0.54-1.05c-0.21-0.76-0.3-1.9-0.3-3.41v-2.24
			l-0.83-0.16c-0.37,0.32-0.65,1.06-0.83,2.23v2.4l-0.69-0.16l-1.1-3.99c-0.18-0.63-0.6-1.22-1.24-1.75
			c-1.38-1.17-2.48-2.45-3.31-3.82c-0.27-0.85-0.41-1.49-0.41-1.92s0.1-0.73,0.28-0.88c0.18-0.16,0.51-0.38,0.96-0.63
			c0.46-0.27,0.83-0.45,1.11-0.56c-1.19-0.96-1.79-1.76-1.79-2.4v-2.07c-1.47-2.01-2.9-3.34-4.29-3.98
			c-0.09-0.32-0.13-0.53-0.13-0.65c-0.09-1.27-0.26-2.81-0.49-4.61c-0.22-1.81-0.6-3.03-1.1-3.67c-0.51-0.65-1.08-0.96-1.73-0.96
			c-4.42,0.84-8.55,1.27-12.42,1.27c-0.83,0.96-1.47,1.54-1.92,1.75c-0.46,0.22-0.96,0.32-1.52,0.32c-0.37,0-0.91-0.1-1.66-0.32
			l-0.41,4.95c-0.09,1.59-0.18,2.76-0.28,3.51c-0.91,4.14-1.63,6.48-2.13,7.01c-0.51,0.53-1.03,0.91-1.58,1.11
			c-2.76,0.43-4.98,0.7-6.62,0.8c-1.57,0.53-2.58,0.91-3.04,1.11c-1.92-0.31-4.12-0.79-6.55-1.42c-2.44-0.63-4.3-1.11-5.59-1.44
			c-0.55,0.1-1.24,1.28-2.07,3.51s-1.66,3.34-2.48,3.34c-1.1-0.84-2.11-1.65-3.03-2.38c-1.56-1.28-2.53-2.12-2.9-2.55
			c-2.39-0.85-4.09-1.54-5.1-2.07c-1.38-0.74-2.07-1.59-2.07-2.55l1.24-7.49c-1.11-0.32-1.84-0.48-2.2-0.48h-2.91l-15.45,5.26
			c-1.38-0.1-2.85-0.75-4.41-1.92c-0.1,1.06-0.41,2.07-0.97,3.03c-0.55,0.96-1.1,1.65-1.66,2.07c-0.73,0.57-1.39,1.17-1.97,1.79
			c-2.63,2.8-3.96,6.18-3.96,10.17c0,0-1.01,0.53-3.03,1.59s-3.54,2.66-4.55,4.78c-0.37,0.63-1.66,2.12-3.86,4.47
			c-1.38,1.41-2.33,2.77-2.84,4.05c-0.15,0.35-0.26,0.7-0.34,1.04c-0.37,0.85-0.55,2.07-0.55,3.67c0.09,0.32,0.13,1.11,0.13,2.4
			v2.23l-0.55,6.85c2.3,0.22,3.63,0.43,4.01,0.63c0.73,0.32,1.66,1.44,2.75,3.35c0.74-0.85,1.19-1.27,1.38-1.27
			c0.54-0.21,1.28-0.31,2.24-0.32h0.11c0.56,0.1,1.39,0.16,2.48,0.16h7.45v-22.3h2.9c0.58,0.38,1.86,1.68,3.85,3.94
			c0.84,0.96,1.81,2.09,2.91,3.39c3.69,4.35,5.8,6.96,6.36,7.81c4.69-3.41,9.29-7.18,13.79-11.32c5.15,0,9.47,1.27,12.97,3.82
			c2.29,1.7,4.18,3.72,5.65,6.06c1.47,2.33,2.2,4.09,2.2,5.26c0,1.06-0.23,2.38-0.68,3.98c-0.74,1.81-1.67,3.78-2.76,5.91
			c0.18,2.12,1.52,5.04,4.01,8.76c2.02,3.08,4.59,6.11,7.72,9.09c3.96,3.72,7.13,5.57,9.52,5.57c2.57,0,4.97-1.27,7.17-3.82
			c-3.13-4.68-4.7-7.06-4.7-7.16c3.68-10.21,5.53-16.74,5.53-19.61c0.09-1.17,0.55-2.23,1.38-3.19c1.29-1.49,1.92-2.23,1.92-2.23
			c-1.64-4.37-2.52-6.59-2.62-6.7c-1.01-2.12-1.97-3.83-2.9-5.1c-0.73-1.92-2.02-4.99-3.86-9.25c-0.65-1.59-0.97-2.49-0.97-2.71
			c-0.73-1.27-1.51-2.86-2.34-4.78c-0.46-1.06-0.83-1.75-1.11-2.07c0.28-0.43,0.56-0.63,0.83-0.63c0.28,0,0.51,0.21,0.69,0.63
			c0.55,0.63,1.14,1.59,1.79,2.88c0.65,1.27,1.16,2.01,1.52,2.23c0.28-0.31,0.41-0.79,0.41-1.44c0.18-1.06,0.28-1.85,0.28-2.38
			v-1.44c0.27-0.32,0.46-0.48,0.55-0.48c0.18,0,0.41,0.16,0.69,0.48v1.44c0,1.27,0.11,2.28,0.34,3.03c0.23,0.74,0.67,1.11,1.31,1.11
			c0.18,0.53,0.52,1.06,1.03,1.59c0.5,0.53,0.8,1.32,0.89,2.38c0.1,1.06,0.62,2.02,1.59,2.88c0.96,0.84,1.45,1.65,1.45,2.38
			c0.18,1.08,0.46,1.99,0.83,2.8c0.37,0.8,1.14,1.57,2.35,2.31c0.91,0.63,1.42,1.97,1.51,3.99c0.28,1.06,0.56,1.8,0.83,2.23
			c0.28,0.43,0.75,0.88,1.45,1.35c0.69,0.48,1.24,1.04,1.66,1.68c0.41,0.63,0.8,1.54,1.18,2.71c0.37,1.59,0.6,2.81,0.68,3.67
			c0.27,2.24,0.69,4.08,1.28,5.52c0.44,1.1,0.97,1.96,1.62,2.6c5.89-5.09,9.29-7.91,10.22-8.45c1.66-0.96,2.85-2.23,3.58-3.82
			c0.65-1.37,1.57-2.55,2.78-3.52c1.22-1,2.73-1.79,4.54-2.38c0.65-0.43,1.03-0.74,1.17-0.96c0.15-0.21,0.21-0.63,0.21-1.27
			c0-0.43-0.05-1.06-0.13-1.9c-0.1-0.85-0.15-1.49-0.15-1.92c0-0.85,0.15-1.44,0.41-1.75c0.65-0.53,1.59-1.26,2.84-2.15
			c1.24-0.91,2.18-1.57,2.82-1.99c1.29-1.17,1.94-2.02,1.94-2.55v-0.03c0-0.84-0.46-1.72-1.39-2.63
			C318.72,144.88,318.13,144.45,317.46,144.11z"/>
		<polygon class="st1" points="270.14,130.03 270.01,130.99 269.6,130.99 269.6,129.24 269.73,127.65 270.14,127.65 270.29,129.72 
			269.88,128.92 269.88,130.2 		"/>
	</g>
	<path class="st1" d="M302.01,181.06c-1.28,0.63-2.44,1.17-3.45,1.59c-0.15,0.03-0.33,0.08-0.55,0.17H298
		c-0.57,0.19-1.41,0.6-2.47,1.18c-1.47,0.79-2.52,1.19-3.17,1.19c-0.38,0-0.72-0.1-1.03-0.32c-0.33-0.21-0.58-0.45-0.77-0.71
		c-0.18-0.27-0.37-0.51-0.55-0.71c-0.46-0.54-0.79-0.85-0.96-0.96c0,0.21-0.15,0.48-0.43,0.79c-0.55,0.96-0.83,1.44-0.83,1.44
		c0.19,0.31,0.28,0.58,0.28,0.79l0.55,0.65h0.97c0.37,0,0.65,0.08,0.83,0.23c0.18,0.17,0.37,0.43,0.55,0.8
		c0.19,0.38,0.38,0.66,0.56,0.88c0.9,0.54,1.97,0.96,3.23,1.22c1.17,0.25,2.48,0.38,3.94,0.38v2.38c-1.29,2.66-3.08,4.78-5.38,6.37
		c-1.05,0.49-2.44,1.15-4.16,2.01h-0.01c-0.55,0.27-1.13,0.56-1.75,0.87c-0.93,1.06-1.38,2.71-1.38,4.94v1.92
		c-0.19,0.63-0.28,1.06-0.28,1.27c-0.28,0.96-0.41,1.75-0.41,2.4c0,1.8,0.69,2.86,2.07,3.19c0.46-0.74,1.14-1.76,2.07-3.03
		c1.38-1.39,2.39-2.45,3.03-3.19l4.83-5.1c1.46-1.59,2.67-3.67,3.58-6.22c0.1-0.74,0.88-4.2,2.35-10.36
		c0.83-3.39,1.29-5.41,1.38-6.05v-1.42c-0.18,0.1-0.6,0.31-1.24,0.63L302.01,181.06z"/>
	<path class="st1" d="M303.4,180.25l-1.39,0.8c-1.28,0.63-2.44,1.17-3.45,1.59c-0.15,0.03-0.33,0.08-0.55,0.17H298
		c-0.57,0.19-1.41,0.6-2.47,1.18c-1.47,0.79-2.52,1.19-3.17,1.19c-0.38,0-0.72-0.1-1.03-0.32c-0.33-0.21-0.58-0.45-0.77-0.71
		c-0.18-0.27-0.37-0.51-0.55-0.71c-0.46-0.54-0.79-0.85-0.96-0.96c0,0.21-0.15,0.48-0.43,0.79c-0.55,0.96-0.83,1.44-0.83,1.44
		c0.19,0.31,0.28,0.58,0.28,0.79l0.55,0.65h0.97c0.37,0,0.65,0.08,0.83,0.23c0.18,0.17,0.37,0.43,0.55,0.8
		c0.19,0.38,0.38,0.66,0.56,0.88c0.9,0.54,1.97,0.96,3.23,1.22c1.17,0.25,2.48,0.38,3.94,0.38v2.38c-1.29,2.66-3.08,4.78-5.38,6.37
		c-1.05,0.49-2.44,1.15-4.16,2.01h-0.01c-0.55,0.27-1.13,0.56-1.75,0.87c-0.93,1.06-1.38,2.71-1.38,4.94v1.92
		c-0.19,0.63-0.28,1.06-0.28,1.27c-0.28,0.96-0.41,1.75-0.41,2.4c0,1.8,0.69,2.86,2.07,3.19c0.46-0.74,1.14-1.76,2.07-3.03
		c1.38-1.39,2.39-2.45,3.03-3.19l4.83-5.1c1.46-1.59,2.67-3.67,3.58-6.22c0.1-0.74,0.88-4.2,2.35-10.36
		c0.83-3.39,1.29-5.41,1.38-6.05v-1.42C304.45,179.72,304.04,179.93,303.4,180.25z"/>
	<g>
		<path class="st1" d="M319.26,145.4c-0.54-0.52-1.13-0.95-1.8-1.28c-0.47-0.23-0.97-0.41-1.51-0.54c-1.64-0.85-2.48-2.12-2.48-3.82
			c0-0.43,0.12-0.96,0.35-1.59c0.22-0.63,0.34-1.06,0.34-1.28c-0.28-0.1-0.83,0.12-1.66,0.65c-0.83,0.53-1.47,1.06-1.94,1.59
			c-0.73,1.27-1.83,3.08-3.3,5.41c-1.19,1.39-2.2,2.07-3.04,2.07c-0.55,0-0.96-0.16-1.23-0.48c-0.23-0.17-0.41-0.52-0.54-1.05
			c-0.21-0.76-0.3-1.9-0.3-3.41v-2.24l-0.83-0.16c-0.37,0.32-0.65,1.06-0.83,2.23v2.4l-0.69-0.16l-1.1-3.99
			c-0.18-0.63-0.6-1.22-1.24-1.75c-1.38-1.17-2.48-2.45-3.31-3.82c-0.27-0.85-0.41-1.49-0.41-1.92s0.1-0.73,0.28-0.88
			c0.18-0.16,0.51-0.38,0.96-0.63c0.46-0.27,0.83-0.45,1.11-0.56c-1.19-0.96-1.79-1.76-1.79-2.4v-2.07
			c-1.47-2.01-2.9-3.34-4.29-3.98c-0.09-0.32-0.13-0.53-0.13-0.65c-0.09-1.27-0.26-2.81-0.49-4.61c-0.22-1.81-0.6-3.03-1.1-3.67
			c-0.51-0.65-1.08-0.96-1.73-0.96c-4.42,0.84-8.55,1.27-12.42,1.27c-0.83,0.96-1.47,1.54-1.92,1.75c-0.46,0.22-0.96,0.32-1.52,0.32
			c-0.37,0-0.91-0.1-1.66-0.32l-0.41,4.95c-0.09,1.59-0.18,2.76-0.28,3.51c-0.91,4.14-1.63,6.48-2.13,7.01
			c-0.51,0.53-1.03,0.91-1.58,1.11c-2.76,0.43-4.98,0.7-6.62,0.8c-1.57,0.53-2.58,0.91-3.04,1.11c-1.92-0.31-4.12-0.79-6.55-1.42
			c-2.44-0.63-4.3-1.11-5.59-1.44c-0.55,0.1-1.24,1.28-2.07,3.51s-1.66,3.34-2.48,3.34c-1.1-0.84-2.11-1.65-3.03-2.38
			c-1.56-1.28-2.53-2.12-2.9-2.55c-2.39-0.85-4.09-1.54-5.1-2.07c-1.38-0.74-2.07-1.59-2.07-2.55l1.24-7.49
			c-1.11-0.32-1.84-0.48-2.2-0.48h-2.91l-15.45,5.26c-1.38-0.1-2.85-0.75-4.41-1.92c-0.1,1.06-0.41,2.07-0.97,3.03
			c-0.55,0.96-1.1,1.65-1.66,2.07c-0.73,0.57-1.39,1.17-1.97,1.79c-2.63,2.8-3.96,6.18-3.96,10.17c0,0-1.01,0.53-3.03,1.59
			s-3.54,2.66-4.55,4.78c-0.37,0.63-1.66,2.12-3.86,4.47c-1.38,1.41-2.33,2.77-2.84,4.05c-0.15,0.35-0.26,0.7-0.34,1.04
			c-0.37,0.85-0.55,2.07-0.55,3.67c0.09,0.32,0.13,1.11,0.13,2.4v2.23l-0.55,6.85c2.3,0.22,3.63,0.43,4.01,0.63
			c0.73,0.32,1.66,1.44,2.75,3.35c0.74-0.85,1.19-1.27,1.38-1.27c0.54-0.21,1.28-0.31,2.24-0.32h0.11c0.56,0.1,1.39,0.16,2.48,0.16
			h7.45v-22.3h2.9c0.58,0.38,1.86,1.68,3.85,3.94c0.84,0.96,1.81,2.09,2.91,3.39c3.69,4.35,5.8,6.96,6.36,7.81
			c4.69-3.41,9.29-7.18,13.79-11.32c5.15,0,9.47,1.27,12.97,3.82c2.29,1.7,4.18,3.72,5.65,6.06c1.47,2.33,2.2,4.09,2.2,5.26
			c0,1.06-0.23,2.38-0.68,3.98c-0.74,1.81-1.67,3.78-2.76,5.91c0.18,2.12,1.52,5.04,4.01,8.76c2.02,3.08,4.59,6.11,7.72,9.09
			c3.96,3.72,7.13,5.57,9.52,5.57c2.57,0,4.97-1.27,7.17-3.82c-3.13-4.68-4.7-7.06-4.7-7.16c3.68-10.21,5.53-16.74,5.53-19.61
			c0.09-1.17,0.55-2.23,1.38-3.19c1.29-1.49,1.92-2.23,1.92-2.23c-1.64-4.37-2.52-6.59-2.62-6.7c-1.01-2.12-1.97-3.83-2.9-5.1
			c-0.73-1.92-2.02-4.99-3.86-9.25c-0.65-1.59-0.97-2.49-0.97-2.71c-0.73-1.27-1.51-2.86-2.34-4.78c-0.46-1.06-0.83-1.75-1.11-2.07
			c0.28-0.43,0.56-0.63,0.83-0.63c0.28,0,0.51,0.21,0.69,0.63c0.55,0.63,1.14,1.59,1.79,2.88c0.65,1.27,1.16,2.01,1.52,2.23
			c0.28-0.31,0.41-0.79,0.41-1.44c0.18-1.06,0.28-1.85,0.28-2.38v-1.44c0.27-0.32,0.46-0.48,0.55-0.48c0.18,0,0.41,0.16,0.69,0.48
			v1.44c0,1.27,0.11,2.28,0.34,3.03c0.23,0.74,0.67,1.11,1.31,1.11c0.18,0.53,0.52,1.06,1.03,1.59c0.5,0.53,0.8,1.32,0.89,2.38
			c0.1,1.06,0.62,2.02,1.59,2.88c0.96,0.84,1.45,1.65,1.45,2.38c0.18,1.08,0.46,1.99,0.83,2.8c0.37,0.8,1.14,1.57,2.35,2.31
			c0.91,0.63,1.42,1.97,1.51,3.99c0.28,1.06,0.56,1.8,0.83,2.23c0.28,0.43,0.75,0.88,1.45,1.35c0.69,0.48,1.24,1.04,1.66,1.68
			c0.41,0.63,0.8,1.54,1.18,2.71c0.37,1.59,0.6,2.81,0.68,3.67c0.27,2.24,0.69,4.08,1.28,5.52c0.44,1.1,0.97,1.96,1.62,2.6
			c5.89-5.09,9.29-7.91,10.22-8.45c1.66-0.96,2.85-2.23,3.58-3.82c0.65-1.37,1.57-2.55,2.78-3.52c1.22-1,2.73-1.79,4.54-2.38
			c0.65-0.43,1.03-0.74,1.17-0.96c0.15-0.21,0.21-0.63,0.21-1.27c0-0.43-0.05-1.06-0.13-1.9c-0.1-0.85-0.15-1.49-0.15-1.92
			c0-0.85,0.15-1.44,0.41-1.75c0.65-0.53,1.59-1.26,2.84-2.15c1.24-0.91,2.18-1.57,2.82-1.99c1.29-1.17,1.94-2.02,1.94-2.55v-0.03
			C320.65,147.18,320.18,146.3,319.26,145.4z"/>
		<polygon class="st1" points="270.14,130.03 270.01,130.99 269.6,130.99 269.6,129.24 269.73,127.65 270.14,127.65 270.29,129.72 
			269.88,128.92 269.88,130.2 		"/>
	</g>
	<g>
		<g>
			<path class="st1" d="M314.29,111.38c-0.68-0.76-1.37-1.52-2.08-2.24c-7.56-7.84-16.78-13.95-27.71-18.32
				c-1.88-0.74-3.78-1.42-5.69-2.02c-9.28-3.01-18.88-4.51-28.8-4.51c-12.24,0-23.96,2.23-35.18,6.7c-5.1,2.07-9.82,4.48-14.13,7.27
				c-3.95,2.51-7.57,5.34-10.86,8.45c-1.84,1.74-3.58,3.56-5.23,5.48c-11.58,13.5-17.28,30.23-17.1,50.21
				c0.01,4.56,0.35,8.94,0.98,13.12c0.08,0.49,0.13,0.97,0.22,1.42c0.12,0.75,0.25,1.5,0.41,2.24v0.01
				c2.14,10.87,6.43,20.41,12.88,28.63c4.97,6.4,10.85,11.81,17.65,16.23c4.17,2.72,8.68,5.05,13.53,7.03
				c1.02,0.43,2.07,0.83,3.11,1.22c3.97,1.46,8.07,2.66,12.27,3.57c6.85,1.49,14,2.23,21.45,2.23c4.92,0,9.74-0.36,14.46-1.08
				c2.34-0.35,4.67-0.8,6.95-1.33c2.81-0.65,5.58-1.44,8.34-2.34c1.63-0.56,3.26-1.14,4.86-1.79c11.87-4.66,21.77-11.41,29.66-20.23
				c12.24-13.6,18.3-29.96,18.22-49.09C332.41,141.83,326.34,124.88,314.29,111.38z M310.56,205.9c-6.8,7.56-15.1,13.59-24.89,18.04
				c-1.06,0.49-2.13,0.96-3.24,1.41c-2.33,0.93-4.68,1.76-7.05,2.49h-0.01c-2.63,0.79-5.26,1.46-7.94,1.99
				c-5.67,1.15-11.48,1.72-17.43,1.72c-8.16,0-16.07-1.06-23.7-3.19c-3.57-1-7.07-2.21-10.52-3.67c-1.4-0.58-2.77-1.19-4.09-1.83
				c-10.17-4.86-18.5-11.42-25.01-19.69c-9.1-11.58-13.61-25.18-13.52-40.8c0.05-5.34,0.56-10.41,1.54-15.25
				c2.24-11.17,6.92-21.01,14.04-29.53c1.05-1.24,2.13-2.44,3.27-3.6c6.76-6.92,15.09-12.46,25.01-16.64
				c10.77-4.46,21.75-6.63,32.98-6.53c11.22,0.1,22.12,2.33,32.69,6.68c12.48,5.16,22.52,12.64,30.11,22.47
				c0.42,0.52,0.82,1.05,1.22,1.59c3.19,4.37,5.78,8.98,7.79,13.86v0.01c2.93,7.19,4.59,14.92,4.95,23.22
				c0.05,1.17,0.07,2.36,0.07,3.55C326.84,179.24,321.43,193.79,310.56,205.9z"/>
		</g>
		<g>
			<path class="st1" d="M319.26,145.4c-0.54-0.52-1.13-0.95-1.8-1.28c-0.47-0.23-0.97-0.41-1.51-0.54
				c-1.64-0.85-2.48-2.12-2.48-3.82c0-0.43,0.12-0.96,0.35-1.59c0.22-0.63,0.34-1.06,0.34-1.28c-0.28-0.1-0.83,0.12-1.66,0.65
				c-0.83,0.53-1.47,1.06-1.94,1.59c-0.73,1.27-1.83,3.08-3.3,5.41c-1.19,1.39-2.2,2.07-3.04,2.07c-0.55,0-0.96-0.16-1.23-0.48
				c-0.23-0.17-0.41-0.52-0.54-1.05c-0.21-0.76-0.3-1.9-0.3-3.41v-2.24l-0.83-0.16c-0.37,0.32-0.65,1.06-0.83,2.23v2.4l-0.69-0.16
				l-1.1-3.99c-0.18-0.63-0.6-1.22-1.24-1.75c-1.38-1.17-2.48-2.45-3.31-3.82c-0.27-0.85-0.41-1.49-0.41-1.92s0.1-0.73,0.28-0.88
				c0.18-0.16,0.51-0.38,0.96-0.63c0.46-0.27,0.83-0.45,1.11-0.56c-1.19-0.96-1.79-1.76-1.79-2.4v-2.07
				c-1.47-2.01-2.9-3.34-4.29-3.98c-0.09-0.32-0.13-0.53-0.13-0.65c-0.09-1.27-0.26-2.81-0.49-4.61c-0.22-1.81-0.6-3.03-1.1-3.67
				c-0.51-0.65-1.08-0.96-1.73-0.96c-4.42,0.84-8.55,1.27-12.42,1.27c-0.83,0.96-1.47,1.54-1.92,1.75
				c-0.46,0.22-0.96,0.32-1.52,0.32c-0.37,0-0.91-0.1-1.66-0.32l-0.41,4.95c-0.09,1.59-0.18,2.76-0.28,3.51
				c-0.91,4.14-1.63,6.48-2.13,7.01c-0.51,0.53-1.03,0.91-1.58,1.11c-2.76,0.43-4.98,0.7-6.62,0.8c-1.57,0.53-2.58,0.91-3.04,1.11
				c-1.92-0.31-4.12-0.79-6.55-1.42c-2.44-0.63-4.3-1.11-5.59-1.44c-0.55,0.1-1.24,1.28-2.07,3.51s-1.66,3.34-2.48,3.34
				c-1.1-0.84-2.11-1.65-3.03-2.38c-1.56-1.28-2.53-2.12-2.9-2.55c-2.39-0.85-4.09-1.54-5.1-2.07c-1.38-0.74-2.07-1.59-2.07-2.55
				l1.24-7.49c-1.11-0.32-1.84-0.48-2.2-0.48h-2.91l-15.45,5.26c-1.38-0.1-2.85-0.75-4.41-1.92c-0.1,1.06-0.41,2.07-0.97,3.03
				c-0.55,0.96-1.1,1.65-1.66,2.07c-0.73,0.57-1.39,1.17-1.97,1.79c-2.63,2.8-3.96,6.18-3.96,10.17c0,0-1.01,0.53-3.03,1.59
				s-3.54,2.66-4.55,4.78c-0.37,0.63-1.66,2.12-3.86,4.47c-1.38,1.41-2.33,2.77-2.84,4.05c-0.15,0.35-0.26,0.7-0.34,1.04
				c-0.37,0.85-0.55,2.07-0.55,3.67c0.09,0.32,0.13,1.11,0.13,2.4v2.23l-0.55,6.85c2.3,0.22,3.63,0.43,4.01,0.63
				c0.73,0.32,1.66,1.44,2.75,3.35c0.74-0.85,1.19-1.27,1.38-1.27c0.54-0.21,1.28-0.31,2.24-0.32h0.11c0.56,0.1,1.39,0.16,2.48,0.16
				h7.45v-22.3h2.9c0.58,0.38,1.86,1.68,3.85,3.94c0.84,0.96,1.81,2.09,2.91,3.39c3.69,4.35,5.8,6.96,6.36,7.81
				c4.69-3.41,9.29-7.18,13.79-11.32c5.15,0,9.47,1.27,12.97,3.82c2.29,1.7,4.18,3.72,5.65,6.06c1.47,2.33,2.2,4.09,2.2,5.26
				c0,1.06-0.23,2.38-0.68,3.98c-0.74,1.81-1.67,3.78-2.76,5.91c0.18,2.12,1.52,5.04,4.01,8.76c2.02,3.08,4.59,6.11,7.72,9.09
				c3.96,3.72,7.13,5.57,9.52,5.57c2.57,0,4.97-1.27,7.17-3.82c-3.13-4.68-4.7-7.06-4.7-7.16c3.68-10.21,5.53-16.74,5.53-19.61
				c0.09-1.17,0.55-2.23,1.38-3.19c1.29-1.49,1.92-2.23,1.92-2.23c-1.64-4.37-2.52-6.59-2.62-6.7c-1.01-2.12-1.97-3.83-2.9-5.1
				c-0.73-1.92-2.02-4.99-3.86-9.25c-0.65-1.59-0.97-2.49-0.97-2.71c-0.73-1.27-1.51-2.86-2.34-4.78c-0.46-1.06-0.83-1.75-1.11-2.07
				c0.28-0.43,0.56-0.63,0.83-0.63c0.28,0,0.51,0.21,0.69,0.63c0.55,0.63,1.14,1.59,1.79,2.88c0.65,1.27,1.16,2.01,1.52,2.23
				c0.28-0.31,0.41-0.79,0.41-1.44c0.18-1.06,0.28-1.85,0.28-2.38v-1.44c0.27-0.32,0.46-0.48,0.55-0.48c0.18,0,0.41,0.16,0.69,0.48
				v1.44c0,1.27,0.11,2.28,0.34,3.03c0.23,0.74,0.67,1.11,1.31,1.11c0.18,0.53,0.52,1.06,1.03,1.59c0.5,0.53,0.8,1.32,0.89,2.38
				c0.1,1.06,0.62,2.02,1.59,2.88c0.96,0.84,1.45,1.65,1.45,2.38c0.18,1.08,0.46,1.99,0.83,2.8c0.37,0.8,1.14,1.57,2.35,2.31
				c0.91,0.63,1.42,1.97,1.51,3.99c0.28,1.06,0.56,1.8,0.83,2.23c0.28,0.43,0.75,0.88,1.45,1.35c0.69,0.48,1.24,1.04,1.66,1.68
				c0.41,0.63,0.8,1.54,1.18,2.71c0.37,1.59,0.6,2.81,0.68,3.67c0.27,2.24,0.69,4.08,1.28,5.52c0.44,1.1,0.97,1.96,1.62,2.6
				c5.89-5.09,9.29-7.91,10.22-8.45c1.66-0.96,2.85-2.23,3.58-3.82c0.65-1.37,1.57-2.55,2.78-3.52c1.22-1,2.73-1.79,4.54-2.38
				c0.65-0.43,1.03-0.74,1.17-0.96c0.15-0.21,0.21-0.63,0.21-1.27c0-0.43-0.05-1.06-0.13-1.9c-0.1-0.85-0.15-1.49-0.15-1.92
				c0-0.85,0.15-1.44,0.41-1.75c0.65-0.53,1.59-1.26,2.84-2.15c1.24-0.91,2.18-1.57,2.82-1.99c1.29-1.17,1.94-2.02,1.94-2.55v-0.03
				C320.65,147.18,320.18,146.3,319.26,145.4z"/>
			<polygon class="st1" points="270.14,130.03 270.01,130.99 269.6,130.99 269.6,129.24 269.73,127.65 270.14,127.65 270.29,129.72 
				269.88,128.92 269.88,130.2 			"/>
		</g>
	</g>
	<path class="st1" d="M303.4,180.25l-1.39,0.8c-1.28,0.63-2.44,1.17-3.45,1.59c-0.15,0.03-0.33,0.08-0.55,0.17H298
		c-0.57,0.19-1.41,0.6-2.47,1.18c-1.47,0.79-2.52,1.19-3.17,1.19c-0.38,0-0.72-0.1-1.03-0.32c-0.33-0.21-0.58-0.45-0.77-0.71
		c-0.18-0.27-0.37-0.51-0.55-0.71c-0.46-0.54-0.79-0.85-0.96-0.96c0,0.21-0.15,0.48-0.43,0.79c-0.55,0.96-0.83,1.44-0.83,1.44
		c0.19,0.31,0.28,0.58,0.28,0.79l0.55,0.65h0.97c0.37,0,0.65,0.08,0.83,0.23c0.18,0.17,0.37,0.43,0.55,0.8
		c0.19,0.38,0.38,0.66,0.56,0.88c0.9,0.54,1.97,0.96,3.23,1.22c1.17,0.25,2.48,0.38,3.94,0.38v2.38c-1.29,2.66-3.08,4.78-5.38,6.37
		c-1.05,0.49-2.44,1.15-4.16,2.01h-0.01c-0.55,0.27-1.13,0.56-1.75,0.87c-0.93,1.06-1.38,2.71-1.38,4.94v1.92
		c-0.19,0.63-0.28,1.06-0.28,1.27c-0.28,0.96-0.41,1.75-0.41,2.4c0,1.8,0.69,2.86,2.07,3.19c0.46-0.74,1.14-1.76,2.07-3.03
		c1.38-1.39,2.39-2.45,3.03-3.19l4.83-5.1c1.46-1.59,2.67-3.67,3.58-6.22c0.1-0.74,0.88-4.2,2.35-10.36
		c0.83-3.39,1.29-5.41,1.38-6.05v-1.42C304.45,179.72,304.04,179.93,303.4,180.25z"/>
</g>
<path class="st2" d="M253.34,290.65"/>
<path class="st3" d="M288.65,0.09l-31.53,22.1L225.01,0C86.27,81.75,15.22,166.17,0.26,252.83l-0.42,168.52l1.9,9.05l2.73-9.08
	c0.29-36,3.25-70.43,19.07-97.31L24,260.27C37.88,174.05,116.44,99.65,224.41,30.6l30.7,23.33l33.49-21.4
	c86.58,57.8,160.14,122.06,187.23,209.34L475.73,374h24.26l-0.22-134.59C485.11,162.09,414.73,82.31,288.65,0.09L288.65,0.09z"/>
<path class="st4" d="M475.74,374.01l24.26,0.02V389c-6.77,6.72-7.83,13.09-1.85,19.26c5.33,14.12-1.22,28.33-17.08,46.53
	c4.14-20.68-15.01-23.76-5.32-46.74c4.33-6.63,4.33-12.99,0-19.07v-14.97H475.74z"/>
<path class="st5" d="M255.23,29.52C169.9,62.11,102.51,123.14,61.34,225.74l1.62,217.68l2.84,8.61l3.13-8.71
	c0.31-25.76,4.15-46.86,15.72-57.72V240.4c25.53-83.89,86.02-143.54,170.42-186.59C330.7,97.2,386.98,153.34,418.43,225.9
	l0.56,128.2l-15.96-0.02l-0.02,16.79l39.21,0.35V219.18C410.03,132.07,346.3,69.96,255.23,29.52L255.23,29.52z"/>
<g>
	<g>
		<path class="st6" d="M474.24,467.94c0-4.97-1.61-10.29-4.83-15.99c-2.74-4.84-5.37-7.93-7.87-9.27c-1.07,1.34-1.73,2.24-1.97,2.73
			l-1.61,3.81c-1.07,2.54-1.73,4.72-1.97,6.54l6.08,8.17c3.58,4.85,5.78,11.63,6.62,20.35c-0.84,2.91-5.84,4.36-15.03,4.36h-5.9
			v0.01h-4.08c-2.38,0-5.25-0.36-8.59-1.09c-4.53-0.97-6.86-2.3-6.98-4c7.16-5.21,10.74-11.56,10.74-19.07
			c0-3.76-1.13-7.08-3.4-9.99c-2.27-2.9-5.61-5.08-10.02-6.54c-2.63-0.85-4.77-1.33-6.44-1.45c-1.67-0.12-2.92-0.18-3.76-0.18
			c-1.19-0.12-2.33-0.18-3.4-0.18c-2.26,0-5.01,0.18-8.23,0.54l-8.05,0.91c-1.43,0.73-3.01,3.48-4.74,8.27
			c-1.73,4.79-2.6,8.27-2.6,10.45c0.12,0.48,0.18,0.78,0.18,0.91c1.43-0.37,2.86-0.55,4.29-0.55c4.29,0.12,8.53,1.24,12.71,3.36
			c4.17,2.12,6.74,4.57,7.69,7.36c-4.65,7.51-15.27,11.26-31.85,11.26h-4.48l0,0h-2.46c-5.25,0-9.43-1.39-12.53-4.18
			c-1.79-1.58-3.34-3.81-4.65-6.72c0-2.3,0.36-4.97,1.07-8l1.26-3.63l-1.26-1.27l-3.58,8.35l-2.5,5.45
			c-1.31,2.91-4.36,5.39-9.13,7.45c-4.18,1.7-8.11,2.54-11.81,2.54h-4.65l0,0h-1.06c-5.25,0-9.42-1.39-12.53-4.18
			c-1.67-1.45-3.28-3.7-4.83-6.72c0.24-2.54,0.66-5.21,1.26-8l1.25-3.63l-1.25-1.27l-3.04,6.54l-3.04,7.26
			c-0.83,2.06-3.34,3.94-7.51,5.63c-3.7,1.45-8,2.54-12.89,3.27c-3.94,0.97-11.21,2.01-21.83,3.09
			c-12.17,1.23-21.65,1.66-28.45,1.63l-149.56-0.55c-4.78-0.02-8.06-0.28-9.84-0.55l-10.92-1.63c-7.28-1.09-13.47-2.93-18.61-5.45
			c-8.22-4.02-12.86-10.18-13.96-18.53l-0.36-2.72c-0.28-2.15,0.25-4.82,1.07-7.81c0.61-2.22,1.37-4.36,1.97-6.54l-1.61-0.55
			c-1.55,3.27-2.72,5.86-3.4,7.81c-0.5,1.44-0.75,2.43-0.89,2.91c-0.45,1.46-0.72,3.33-0.72,5.63v2.18
			c0,11.63,2.51,19.91,7.52,24.89c6.93,6.89,16.23,11.58,27.92,14.17c4.18,0.93,7.15,1.7,8.95,2c2.61,0.43,5.67,0.54,9.13,0.54
			c1.55,0,127.66,0.22,136.14,0.55c3.94,0.15,7.28,0.18,10.02,0.18c6.92-0.12,17-0.73,30.24-1.82c15.04-1.21,25.62-2.93,31.77-5.18
			c6.14-2.24,11.25-5.73,15.3-10.45c4.41,8.6,11.27,12.9,20.58,12.9h3.21l0,0h1.63l0,0l0,0h2.85c4.29,0,8.59-1.58,12.88-4.72
			c2.98-2.18,5.55-4.9,7.69-8.17c4.18,8.6,11.04,12.9,20.58,12.9h4.6h2.02h4.6c8.47,0,15.63-1.27,21.47-3.81
			c3.46-1.58,7.4-4.12,11.81-7.63c3.94,7.63,11.63,11.45,23.08,11.45h9.3l0,0v-0.01h2.83c1.79,0,4.59-0.49,8.41-1.45
			c3.22-1.21,5.19-2,5.91-2.36c2.03-2.78,3.94-8,5.73-15.62C473.47,477.82,474.25,472.18,474.24,467.94L474.24,467.94z"/>
	</g>
	<g>
		<path class="st7" d="M139.71,411.98c0.09,0.37,0.13,0.75,0.13,1.14c0,0.77-0.13,1.51-0.4,2.21s-0.57,1.15-0.92,1.33
			c-0.59,0.45-1.48,0.91-2.66,1.39c-1.28,0.53-2.69,0.96-4.21,1.3c-1.77,0.4-3.41,0.6-4.89,0.6c-1.35,0-2.57-0.17-3.67-0.5
			c-1.32-0.4-2.34-1.01-3.06-1.83c-0.85-0.96-1.27-2.18-1.27-3.68c0-1.96,0.24-3.71,0.71-5.25c0.42-1.39,1.12-2.81,2.08-4.26
			c0.12-0.19,0.26-0.36,0.43-0.48c0.15-0.12,0.28-0.18,0.38-0.18h0.03c0.12,0,0.18,0.08,0.18,0.23c0,0.18-0.07,0.42-0.21,0.72
			c-0.43,0.8-0.75,1.61-0.96,2.44c-0.21,0.83-0.31,1.64-0.31,2.46c0,0.79,0.09,1.58,0.27,2.37c0.22,1.01,0.73,1.78,1.55,2.33
			c0.65,0.43,1.52,0.72,2.62,0.88c0.7,0.1,1.62,0.15,2.77,0.15c2.09,0,3.88-0.16,5.38-0.47c1.33-0.27,2.43-0.68,3.31-1.22
			c-0.71-0.65-1.77-1.12-3.18-1.44c-0.09-0.02-1.24-0.2-3.46-0.54c0.42-1.57,0.71-2.53,0.86-2.89c0.45-1.07,1.01-1.61,1.66-1.61
			h7.97v4.78h-1.13V411.98z"/>
		<path class="st7" d="M145.06,411.98h-5.34v-4.78h7.16c0.32-1.33,0.94-2.67,1.83-4.03c0.95-1.44,2.01-2.6,3.19-3.5
			c0.38-0.28,0.8-0.51,1.26-0.69c0.45-0.18,0.89-0.26,1.32-0.26c0.37,0,0.69,0.07,0.95,0.21c0.26,0.14,0.47,0.38,0.61,0.71
			c0.2,0.41,0.43,1.18,0.71,2.31c0.32,1.33,0.56,2.25,0.74,2.77c0.34,0.99,0.71,1.64,1.12,1.96c-0.3,0.41-0.74,1.09-1.33,2.05
			c-0.62,1.03-1.24,2.05-1.86,3.06c-0.72-0.06-1.96-0.42-3.73-1.09s-2.93-1.18-3.48-1.53c-0.33,0.6-0.65,1.19-0.96,1.79
			C146.74,411.65,146.01,411.98,145.06,411.98z M152.88,403.34c-0.2-0.06-0.37-0.09-0.52-0.09c-0.42,0-0.84,0.15-1.26,0.45
			c-0.37,0.27-0.7,0.64-0.99,1.1c0.52,0.32,1.15,0.62,1.88,0.88c0.46,0.17,1.12,0.37,1.97,0.6c-0.09-0.6-0.17-1.04-0.25-1.35
			C153.46,404.02,153.2,403.49,152.88,403.34z"/>
		<path class="st7" d="M172.43,399.21c0-1.15-0.11-2.43-0.34-3.84s-0.45-2.76-0.67-4.06l3.18-3.4c0.16,1.43,0.34,3.29,0.54,5.58
			c0.2,2.29,0.38,4.56,0.55,6.81c0.16,2.25,0.24,3.73,0.24,4.45c0,0.95,0.16,1.61,0.49,1.99c0.29,0.33,0.7,0.5,1.24,0.5h0.1
			l1.51,0.06v4.72h-4.27c-0.4,0-0.73-0.13-0.98-0.4c-0.28-0.29-0.41-0.72-0.41-1.27c-0.04-0.39-0.08-1.22-0.11-2.48
			s-0.06-2.11-0.08-2.55c-0.05-1.08-0.14-2.04-0.27-2.9c-0.18,1.05-0.48,2.14-0.9,3.25c-0.51,1.34-1.14,2.51-1.88,3.52
			c-0.89,1.21-1.9,2.13-3.03,2.77c-1.47,0.63-2.81,1.1-4.04,1.41c-1.46,0.36-2.93,0.54-4.41,0.54c-0.14,0-0.32,0.01-0.55,0.02
			s-0.39,0.02-0.48,0.02c-0.81,0-1.21-0.09-1.21-0.28c0.03-0.2,0.6-0.44,1.7-0.73c1.51-0.41,3.13-1.2,4.85-2.37
			c1.62-1.1,3-2.31,4.14-3.61c-0.25-0.93-0.56-1.89-0.93-2.9c-0.53-1.41-1.09-2.64-1.67-3.69c-0.76-1.37-1.59-2.52-2.5-3.46
			l-0.83,1.29c-1.1-0.54-2.09-1.21-2.96-2.01c-0.64-0.59-1.22-1.27-1.75-2.04c-0.07-0.2-0.12-0.41-0.14-0.61
			c-0.02-0.2-0.04-0.46-0.04-0.78c0-0.71,0.12-1.49,0.35-2.31c0.18-0.62,0.39-1.16,0.64-1.64c1.89,0.7,3.75,2.04,5.57,4
			c1.7,1.83,3.09,3.9,4.19,6.23c1.1,2.32,1.65,4.4,1.65,6.24v0.4c0.62-0.46,1.32-1.31,2.1-2.56c0.93-1.49,1.39-2.74,1.39-3.77v-0.14
			H172.43z"/>
		<path class="st7" d="M177.5,411.98v-4.78h5.19c0.21-0.27,0.35-0.61,0.44-1.02s0.13-0.8,0.13-1.19c0-0.24-0.02-0.43-0.06-0.54
			l3.13-3.55c0.15,0.31,0.22,0.7,0.22,1.17c0,0.8-0.16,1.77-0.47,2.92c-0.28,1.02-0.51,1.65-0.71,1.89c0.09,0.13,0.38,0.23,0.89,0.3
			c0.5,0.07,1.1,0.11,1.8,0.11c0.36,0,0.73-0.01,1.09-0.04s0.68-0.07,0.95-0.13c0.14-0.24,0.26-0.57,0.37-0.97s0.16-0.79,0.16-1.15
			v-0.16c0-0.18-0.02-0.32-0.06-0.44c0.37-0.4,0.87-0.9,1.48-1.5c0.82-0.8,1.43-1.38,1.85-1.74c-0.1,1.14-0.28,2.26-0.53,3.34
			c-0.31,1.3-0.64,2.2-1.01,2.71h4.24l0.03-0.38c0-0.67-0.26-1.5-0.77-2.46c0.47-0.57,1.06-1.23,1.77-1.99
			c0.59-0.64,1.17-1.24,1.75-1.82c0.06,0.69,0.09,1.35,0.09,1.96c0,0.41-0.01,0.97-0.04,1.68s-0.04,1.23-0.04,1.54
			c-0.15,1.51-0.27,2.56-0.35,3.15c-0.18,1.26-0.41,2.29-0.68,3.09h-7.6c-0.2,0-0.34-0.1-0.43-0.31c-0.03-0.07-0.07-0.2-0.13-0.41
			c-0.11,0.24-0.2,0.4-0.28,0.48c-0.14,0.16-0.31,0.23-0.52,0.23h-5.84c-0.15,0-0.28-0.11-0.38-0.34c-0.11-0.23-0.16-0.48-0.16-0.78
			v-0.18c-0.27,0.37-0.51,0.65-0.73,0.85c-0.32,0.29-0.61,0.44-0.87,0.44h-3.92V411.98z"/>
		<path class="st7" d="M205.26,390.94c0,1.2,0.1,2.88,0.3,5.05c0.2,2.16,0.4,4.34,0.61,6.53s0.31,3.78,0.31,4.77
			c-0.26,1.37-0.64,2.51-1.15,3.41c-0.19,0.33-0.64,0.95-1.36,1.85l-2.03-17.52L205.26,390.94z"/>
		<path class="st7" d="M214.96,411.98c-1.57,0-2.84-0.54-3.83-1.63c-0.99-1.08-1.48-2.45-1.48-4.1c0-0.8,0.04-1.5,0.12-2.11
			c0.12-0.9,0.33-1.72,0.62-2.46c0.13-0.29,0.29-0.56,0.5-0.81c0.2-0.25,0.36-0.37,0.48-0.37c0.07,0,0.1,0.06,0.1,0.18
			c0,0.11-0.03,0.29-0.1,0.54s-0.14,0.58-0.2,0.97c-0.07,0.4-0.1,0.8-0.1,1.22c0,0.96,0.34,1.83,1.03,2.61
			c0.69,0.79,1.49,1.18,2.4,1.18h16.81c-0.16-1.01-0.51-1.92-1.05-2.76c-0.47-0.73-1.05-1.32-1.72-1.77l2.94-4.53
			c0.84,1.62,1.46,3.32,1.86,5.1c0.33,1.49,0.5,2.96,0.5,4.44c0,0.89-0.06,1.7-0.18,2.44s-0.27,1.35-0.46,1.85L214.96,411.98
			L214.96,411.98z M221.17,397.24l-1.63,1.6c-0.15,0.12-0.33,0.18-0.55,0.18c-0.23,0-0.4-0.06-0.52-0.18l-1.97-1.95
			c-0.31-0.18-0.46-0.38-0.46-0.6c0-0.16,0.06-0.31,0.18-0.45l2.31-2.15c0.05-0.03,0.12-0.06,0.21-0.08
			c0.09-0.03,0.16-0.04,0.22-0.04c0.31,0,0.54,0.11,0.7,0.32l1.42,1.41c0.2,0.17,0.32,0.25,0.37,0.25c0.03,0,0.1-0.04,0.2-0.12
			c0.1-0.08,0.18-0.14,0.23-0.18l1.63-1.55c0.15-0.11,0.3-0.16,0.46-0.16c0.24,0,0.47,0.11,0.69,0.34l2.08,1.98
			c0.15,0.22,0.22,0.38,0.22,0.48c0,0.23-0.14,0.42-0.43,0.57l-2.03,1.95c-0.15,0.12-0.31,0.18-0.49,0.18
			c-0.21,0-0.39-0.06-0.55-0.18l-1.51-1.57c-0.21-0.19-0.35-0.29-0.43-0.29C221.49,396.98,221.37,397.07,221.17,397.24z"/>
		<path class="st7" d="M243.4,407.21v4.75l-3.42,0.03c-0.46,0-0.92-0.19-1.37-0.57c-0.52-0.44-0.78-0.97-0.78-1.58
			c0-1.23-0.11-2.86-0.34-4.89c-0.18-1.59-0.44-3.58-0.78-5.96c-0.29-1.88-0.57-3.75-0.84-5.63c0.24-0.33,0.59-0.79,1.06-1.38
			c0.71-0.89,1.12-1.41,1.24-1.55c0.43-0.56,0.71-0.95,0.84-1.17c0.16,1.28,0.37,3.08,0.63,5.4c0.26,2.32,0.47,4.38,0.64,6.18
			c0.22,2.39,0.33,4.09,0.33,5.09c0.05,0.42,0.21,0.74,0.5,0.97c0.28,0.23,0.63,0.34,1.06,0.34h1.23V407.21z"/>
		<path class="st7" d="M260.55,411.98h-1.97c-0.26,0-0.57,0.01-0.93,0.02c-0.37,0.01-0.6,0.01-0.71,0.01
			c-0.44,0-0.81-0.04-1.09-0.11c-0.28-0.07-0.62-0.24-1.03-0.49c-0.28,0.23-0.57,0.39-0.87,0.48c-0.22,0.07-0.46,0.1-0.73,0.1
			c-0.09,0-0.17,0-0.26-0.01c-0.08-0.01-0.16-0.01-0.23-0.01h-10.46v-4.78h5.28c-0.25-0.26-0.43-0.52-0.54-0.78s-0.17-0.52-0.17-0.8
			c0-0.29,0.05-0.61,0.16-0.95c0.08-0.24,0.23-0.62,0.46-1.14c0.38-0.84,0.96-1.71,1.73-2.62c0.89-1.04,1.84-1.88,2.87-2.51
			c1.22-0.75,2.43-1.13,3.62-1.13c1.01,0,1.84,0.65,2.48,1.95c0.57,1.15,0.86,2.48,0.86,3.97v0.29c0,0.31-0.02,0.57-0.06,0.78
			c-0.12,0.61-0.26,1.13-0.41,1.55c-0.21,0.56-0.46,1.02-0.77,1.39h2.75v4.79H260.55z M249.54,394.17l-1.61,1.64
			c-0.15,0.12-0.31,0.18-0.49,0.18c-0.11,0-0.2-0.01-0.28-0.04s-0.17-0.07-0.27-0.14l-2.03-1.95c-0.15-0.11-0.26-0.21-0.33-0.31
			s-0.1-0.19-0.1-0.29c0.03-0.16,0.1-0.31,0.22-0.45l2.26-2.15c0.14-0.11,0.29-0.16,0.46-0.16c0.13,0,0.25,0.03,0.35,0.08
			c0.11,0.05,0.23,0.14,0.35,0.26l1.35,1.45c0.18,0.14,0.3,0.2,0.37,0.2c0.03,0,0.06-0.01,0.1-0.03c0.09-0.05,0.21-0.14,0.35-0.28
			l1.6-1.52c0.08-0.06,0.16-0.1,0.24-0.13c0.08-0.02,0.16-0.04,0.25-0.04c0.14,0,0.26,0.03,0.38,0.09c0.11,0.06,0.22,0.14,0.32,0.25
			l2.07,1.98c0.14,0.17,0.21,0.33,0.21,0.48c0,0.2-0.13,0.38-0.38,0.51l-2.07,1.95c-0.12,0.12-0.3,0.18-0.55,0.18
			c-0.2,0-0.35-0.06-0.46-0.18l-1.51-1.52c-0.22-0.19-0.37-0.28-0.46-0.28C249.82,393.95,249.7,394.02,249.54,394.17z M253.6,407.21
			c0.81,0,1.4-0.12,1.77-0.37c0.22-0.14,0.38-0.33,0.47-0.59c0.02-0.05,0.03-0.11,0.03-0.17c0-0.06,0-0.12,0-0.15
			c0-0.76-0.18-1.52-0.53-2.29c-0.44-0.95-1.01-1.42-1.69-1.42c-0.77,0-1.48,0.27-2.14,0.81c-0.71,0.58-1.12,1.3-1.24,2.17
			c0,0.4,0.39,0.83,1.18,1.3C252.24,406.97,252.96,407.21,253.6,407.21z"/>
		<path class="st7" d="M268.61,402.68l3.34-3.99c0.08,0.36,0.14,0.8,0.18,1.31c0.04,0.51,0.06,1.01,0.06,1.5
			c0,0.89-0.05,1.75-0.15,2.57s-0.25,1.59-0.46,2.29v0.06c0,0.22,0.24,0.4,0.72,0.55s1.01,0.23,1.6,0.23h0.83v4.78h-2.43
			c-1.12,0-1.92-0.24-2.38-0.73c-0.26-0.27-0.48-0.79-0.68-1.55c-0.13,0.66-0.41,1.21-0.86,1.64c-0.44,0.43-0.94,0.65-1.48,0.65
			h-7.42v-4.78h8.22c0.29,0,0.56-0.3,0.81-0.9c0.26-0.6,0.38-1.27,0.38-2.01c0-0.3-0.02-0.58-0.06-0.82
			C268.82,403.23,268.74,402.96,268.61,402.68z"/>
		<path class="st7" d="M263.01,417.33l-1.57,1.54c-0.13,0.13-0.28,0.19-0.46,0.19c-0.1,0-0.2-0.02-0.3-0.05
			c-0.1-0.03-0.19-0.08-0.24-0.14l-1.88-1.83c-0.28-0.22-0.41-0.4-0.41-0.56c0.03-0.17,0.1-0.32,0.21-0.45l2.14-2.04
			c0.13-0.07,0.26-0.1,0.4-0.1c0.24,0,0.47,0.1,0.69,0.31l1.33,1.35c0.14,0.14,0.25,0.2,0.33,0.2c0.06,0,0.19-0.09,0.4-0.26
			l1.58-1.49c0.05-0.05,0.11-0.08,0.2-0.1c0.08-0.02,0.16-0.03,0.24-0.03c0.26,0,0.46,0.09,0.61,0.28l1.97,1.89
			c0.18,0.19,0.25,0.35,0.22,0.48c0,0.17-0.12,0.32-0.37,0.47l-1.94,1.89c-0.1,0.11-0.26,0.16-0.49,0.16s-0.38-0.05-0.47-0.16
			l-1.46-1.46c-0.18-0.19-0.31-0.28-0.4-0.28C263.24,417.13,263.14,417.2,263.01,417.33z"/>
		<path class="st7" d="M278.64,393.86l2.03,1.95c0.1,0.07,0.19,0.12,0.27,0.14c0.08,0.02,0.17,0.04,0.28,0.04
			c0.18,0,0.34-0.06,0.49-0.18l1.61-1.64c0.16-0.15,0.28-0.22,0.35-0.22c0.09,0,0.24,0.09,0.46,0.28l1.51,1.52
			c0.11,0.12,0.26,0.18,0.46,0.18c0.25,0,0.43-0.06,0.55-0.18l2.07-1.95c0.26-0.14,0.38-0.31,0.38-0.51c0-0.16-0.07-0.32-0.21-0.48
			l-2.07-1.98c-0.1-0.11-0.21-0.19-0.32-0.25c-0.11-0.06-0.24-0.09-0.38-0.09c-0.09,0-0.17,0.01-0.25,0.04
			c-0.08,0.02-0.16,0.07-0.24,0.13l-1.6,1.52c-0.15,0.14-0.27,0.23-0.35,0.28c-0.04,0.02-0.07,0.03-0.1,0.03
			c-0.07,0-0.19-0.07-0.37-0.2l-1.35-1.45c-0.13-0.12-0.25-0.2-0.35-0.26c-0.11-0.05-0.23-0.08-0.35-0.08
			c-0.17,0-0.32,0.05-0.46,0.16l-2.26,2.15c-0.12,0.15-0.19,0.3-0.22,0.45c0,0.1,0.03,0.2,0.1,0.29
			C278.39,393.65,278.49,393.75,278.64,393.86z"/>
		<path class="st7" d="M324.02,403.27c-0.39-1.78-1.01-3.48-1.85-5.11l-2.97,4.53c0.7,0.48,1.28,1.07,1.75,1.79
			c0.53,0.82,0.88,1.73,1.03,2.74h-15.44c-0.19,0-0.35-0.06-0.49-0.18c-0.18-0.15-0.29-0.38-0.34-0.69c0.79-0.23,1.45-0.4,1.98-0.5
			c0.67-0.13,1.3-0.19,1.89-0.19c0.73,0,1.39,0.11,1.98,0.34c0.21-0.44,0.53-1.12,0.96-2.04c0.39-0.84,0.74-1.59,1.03-2.24
			c-1.43,0-2.7-0.07-3.81-0.22c-1.38-0.18-2.63-0.5-3.76-0.94c-1.49-0.71-2.79-1.25-3.89-1.61c-1.31-0.43-2.45-0.65-3.42-0.65
			c-0.36,0-0.72,0.03-1.06,0.09c-0.94,0.22-1.76,0.75-2.47,1.58c-0.57,0.66-1.05,1.5-1.45,2.5c-0.28,0.7-0.49,1.45-0.65,2.24
			c0.69-0.56,1.22-0.93,1.6-1.11c0.61-0.29,1.35-0.44,2.2-0.44c0.64,0,1.56,0.19,2.77,0.59c1.35,0.44,2.58,0.98,3.68,1.61
			c-0.29,0.13-0.88,0.41-1.77,0.84c-1.59,0.67-3.01,1.01-4.26,1.01h-5.54h-1.06h-1.69c0.31-0.37,0.56-0.83,0.77-1.39
			c0.16-0.42,0.29-0.94,0.41-1.55c0.04-0.21,0.06-0.46,0.06-0.78v-0.29c0-1.5-0.29-2.82-0.86-3.97c-0.64-1.3-1.47-1.95-2.48-1.95
			c-1.19,0-2.4,0.38-3.62,1.13c-1.03,0.62-1.98,1.46-2.87,2.51c-0.77,0.91-1.35,1.78-1.73,2.62c-0.23,0.52-0.38,0.9-0.46,1.14
			c-0.11,0.34-0.16,0.66-0.16,0.95c0,0.27,0.06,0.54,0.17,0.8c0.11,0.26,0.29,0.52,0.54,0.78h-5.28v4.78h10.46
			c0.07,0,0.15,0,0.23,0.01c0.08,0.01,0.17,0.01,0.26,0.01c0.27,0,0.51-0.03,0.73-0.1c0.31-0.1,0.6-0.26,0.87-0.48
			c0.4,0.25,0.75,0.42,1.03,0.49s0.64,0.11,1.09,0.11c0.11,0,0.34-0.01,0.71-0.01c0.36-0.01,0.67-0.02,0.93-0.02h0.9h1.06h6.18
			c0.74,0,1.51-0.33,2.32-1c0.28-0.22,0.98-0.93,2.1-2.12c0.89-0.94,1.67-1.61,2.34-2.01c-0.03,0.12-0.04,0.23-0.04,0.34
			s0,0.23,0,0.34c0,1.02,0.13,1.97,0.4,2.86c0.32,1.05,0.73,1.58,1.26,1.58h17.61c0.19-0.48,0.34-1.09,0.46-1.84
			s0.18-1.56,0.18-2.45C324.52,406.23,324.35,404.76,324.02,403.27z M287.02,406.09c0,0.06-0.01,0.12-0.03,0.17
			c-0.1,0.25-0.26,0.45-0.47,0.59c-0.37,0.24-0.97,0.37-1.77,0.37c-0.64,0-1.36-0.24-2.14-0.7c-0.79-0.47-1.18-0.9-1.18-1.3
			c0.12-0.87,0.53-1.59,1.24-2.17c0.66-0.54,1.37-0.81,2.14-0.81c0.68,0,1.24,0.47,1.69,1.42c0.35,0.76,0.53,1.52,0.53,2.29
			C287.02,405.97,287.02,406.02,287.02,406.09z"/>
		<path class="st7" d="M316.88,395.01l-1.64,1.61c-0.16,0.13-0.33,0.19-0.53,0.19c-0.23,0-0.39-0.06-0.49-0.19l-2-1.92
			c-0.17-0.12-0.29-0.22-0.36-0.32c-0.07-0.1-0.11-0.2-0.1-0.31c0-0.14,0.07-0.27,0.22-0.41l2.23-2.17c0.18-0.1,0.34-0.15,0.49-0.15
			c0.14,0.02,0.26,0.05,0.38,0.1c0.11,0.05,0.21,0.12,0.29,0.22l1.42,1.45c0.14,0.14,0.25,0.2,0.34,0.2c0.08,0,0.22-0.1,0.41-0.29
			l1.67-1.54c0.13-0.1,0.29-0.15,0.47-0.15c0.29,0,0.5,0.11,0.65,0.32l2.11,1.99c0.12,0.15,0.18,0.28,0.18,0.41
			c0,0.23-0.14,0.43-0.43,0.57l-2,1.95c-0.15,0.12-0.33,0.18-0.55,0.18s-0.38-0.06-0.5-0.18l-1.52-1.52
			c-0.19-0.19-0.32-0.28-0.38-0.28C317.18,394.79,317.05,394.86,316.88,395.01z"/>
		<path class="st7" d="M318.79,417.71c1.71,0,3.4-0.33,5.09-0.98c1.43-0.56,2.66-1.26,3.7-2.11c0.46-0.41,0.85-0.79,1.17-1.13
			c0.53-0.59,0.98-1.18,1.35-1.77c0.46-0.77,0.8-1.56,1-2.37c-0.33-0.78-0.72-1.44-1.17-1.96c-0.29-0.35-0.81-0.84-1.55-1.48
			l2.69-4.28c0.47,0.61,1.02,1.42,1.65,2.42s1.1,1.8,1.41,2.42c0.07,0.25,0.26,0.44,0.56,0.56c0.31,0.12,0.78,0.18,1.43,0.18h1.18
			v4.78h-1.39c-0.38,0-0.9-0.16-1.54-0.47c-0.56-0.27-1.01-0.55-1.35-0.82c0,1.02-0.28,2.25-0.84,3.68
			c-0.62,1.56-1.39,2.86-2.31,3.88c-1.09,1.2-2.21,1.8-3.39,1.8c-1.11,0-2.39-0.12-3.81-0.35c-1.73-0.28-3.26-0.68-4.61-1.19
			c-0.68-0.2-1.02-0.4-1.02-0.57C317.07,417.79,317.65,417.71,318.79,417.71z"/>
		<path class="st7" d="M331.42,395.39c0.13,0.2,0.19,0.35,0.19,0.45c0,0.18-0.15,0.36-0.46,0.54l-1.85,1.83
			c-0.12,0.12-0.29,0.18-0.52,0.18c-0.18,0-0.33-0.06-0.44-0.18l-1.92-1.83c-0.13-0.07-0.22-0.15-0.29-0.24
			c-0.06-0.09-0.1-0.19-0.1-0.3c0-0.08,0.01-0.16,0.04-0.23c0.02-0.08,0.06-0.15,0.11-0.22l2.01-1.86c0.18-0.18,0.37-0.26,0.59-0.26
			h0.09c0.16,0,0.28,0.03,0.37,0.09L331.42,395.39z"/>
		<path class="st7" d="M350.32,392.89c-1.71,0.38-3.32,0.79-4.81,1.23c-1.67,0.5-3.03,0.99-4.1,1.48c1,0.58,2.32,1.63,3.99,3.17
			c1.66,1.54,3.09,3.03,4.28,4.48c1.33,1.61,2,2.72,2,3.33c0.04,0.22,0.07,0.45,0.1,0.72c0.03,0.26,0.04,0.51,0.04,0.73
			c0,0.54-0.07,1.11-0.21,1.71c-0.14,0.6-0.37,1.35-0.7,2.25h-14.7v-4.78h11.67c-0.08-0.53-0.53-1.26-1.35-2.21
			c-0.78-0.9-1.65-1.73-2.62-2.51c-1.03-0.82-1.86-1.33-2.51-1.54l-0.34,0.64c-0.66-0.35-1.32-0.83-1.97-1.44
			c-0.97-0.89-1.61-1.79-1.94-2.71c0.19-1.13,0.41-2.14,0.67-3.02c0.33-1.12,0.69-2.01,1.09-2.67c1.57-0.72,3.46-1.4,5.69-2.02
			s4.58-1.15,7.05-1.58L350.32,392.89z"/>
		<path class="st7" d="M345.08,417.71c1.71,0,3.4-0.33,5.09-0.98c1.43-0.56,2.66-1.26,3.7-2.11c0.46-0.41,0.85-0.79,1.17-1.13
			c0.53-0.59,0.98-1.18,1.35-1.77c0.46-0.77,0.8-1.56,1-2.37c-0.33-0.78-0.72-1.44-1.17-1.96c-0.29-0.35-0.81-0.84-1.55-1.48
			l2.69-4.28c0.47,0.61,1.02,1.42,1.65,2.42s1.1,1.8,1.41,2.42c0.07,0.25,0.26,0.44,0.56,0.56c0.31,0.12,0.78,0.18,1.43,0.18h1.18
			v4.78h-1.39c-0.38,0-0.9-0.16-1.54-0.47c-0.56-0.27-1.01-0.55-1.35-0.82c0,1.02-0.28,2.25-0.84,3.68
			c-0.62,1.56-1.39,2.86-2.31,3.88c-1.09,1.2-2.21,1.8-3.39,1.8c-1.11,0-2.39-0.12-3.81-0.35c-1.73-0.28-3.26-0.68-4.61-1.19
			c-0.68-0.2-1.02-0.4-1.02-0.57C343.36,417.79,343.93,417.71,345.08,417.71z"/>
		<path class="st7" d="M367.7,411.98h-5.34v-4.78h7.16c0.33-1.33,0.94-2.67,1.83-4.03c0.95-1.44,2.01-2.6,3.19-3.5
			c0.38-0.28,0.8-0.51,1.26-0.69c0.45-0.18,0.89-0.26,1.32-0.26c0.37,0,0.69,0.07,0.95,0.21c0.26,0.14,0.47,0.38,0.61,0.71
			c0.2,0.41,0.43,1.18,0.71,2.31c0.32,1.33,0.56,2.25,0.74,2.77c0.33,0.99,0.71,1.64,1.12,1.96c-0.3,0.41-0.74,1.09-1.33,2.05
			c-0.62,1.03-1.24,2.05-1.86,3.06c-0.72-0.06-1.96-0.42-3.73-1.09s-2.93-1.18-3.48-1.53c-0.33,0.6-0.65,1.19-0.96,1.79
			C369.38,411.65,368.64,411.98,367.7,411.98z M375.52,403.34c-0.2-0.06-0.37-0.09-0.52-0.09c-0.42,0-0.84,0.15-1.26,0.45
			c-0.38,0.27-0.71,0.64-0.99,1.1c0.52,0.32,1.15,0.62,1.88,0.88c0.46,0.17,1.12,0.37,1.97,0.6c-0.09-0.6-0.17-1.04-0.25-1.35
			C376.11,404.02,375.83,403.49,375.52,403.34z"/>
	</g>
	<polygon class="st6" points="453.83,518.84 442.59,529.98 431.35,518.84 442.59,507.71 	"/>
	<polygon class="st6" points="362.57,447.31 351.33,458.45 340.09,447.31 351.33,436.17 	"/>
	<polygon class="st6" points="342.73,447.31 331.49,458.45 320.25,447.31 331.49,436.17 	"/>
	<polygon class="st6" points="322.88,447.31 311.64,458.45 300.4,447.31 311.64,436.17 	"/>
	<polygon class="st6" points="192.64,447.31 181.41,458.45 170.17,447.31 181.41,436.17 	"/>
	<polygon class="st6" points="172.8,447.31 161.56,458.45 150.32,447.31 161.56,436.17 	"/>
</g>
<g>
	<g>
		<g>
			<path class="st8" d="M319.53,281.52c-23.7-5.03-45.98-4.65-67.9,1.11l-0.34,74.06c0.09,0.26,0.18,0.52,0.3,0.76
				c-0.1,0.05-0.21,0.12-0.31,0.18c-0.21,0.13-0.41,0.25-0.61,0.38l-0.69,0.43l-0.65,0.41l-0.65,0.4v-1.62l0.29-69.32v-0.89
				l0.01-1.54v-0.98l0.01-3.48v-0.76l0.05-0.01l0.95-0.26c1.02-0.3,2.01-0.57,3.03-0.83c0.97-0.26,1.95-0.51,2.92-0.73
				c0.52-0.13,1.03-0.26,1.56-0.38c2.47-0.56,4.93-1.06,7.4-1.48c2.04-0.36,4.09-0.66,6.13-0.92h0.01
				c14.81-1.85,29.58-1.22,44.16,1.96c0.86,0.19,1.74,0.39,2.6,0.6l1.01,0.23v0.79L319.53,281.52z"/>
		</g>
	</g>
	<g>
		<g>
			<path class="st8" d="M251.29,357.14v2.12l-0.65-0.41l-0.65-0.4l-0.69-0.43c-0.21-0.13-0.41-0.25-0.61-0.38
				c-0.1-0.06-0.21-0.13-0.31-0.18c0.12-0.25,0.21-0.51,0.3-0.76l-0.34-74.06c-21.92-5.76-44.2-6.14-67.9-1.11l0.73-1.89v-0.79
				l1.01-0.23c0.85-0.21,1.71-0.4,2.56-0.58c14.59-3.19,29.37-3.83,44.2-1.97h0.01c2.04,0.26,4.09,0.56,6.13,0.92
				c2.47,0.41,4.93,0.92,7.4,1.48c0.52,0.12,1.03,0.25,1.56,0.38c0.97,0.22,1.95,0.47,2.92,0.73c1.02,0.26,2.01,0.53,3.03,0.83
				l0.97,0.26l0.04,0.01v0.76l0.01,3.48v0.98l0.01,1.54v0.89l0.26,64.31L251.29,357.14z"/>
		</g>
	</g>
	<path class="st9" d="M251.27,352.63l-0.33-71.99l-0.97-0.26c-21.14-5.7-42.58-6.49-65.24-2.36c-3.63,0.65-7.29,1.44-10.99,2.36
		l-0.63,0.16l-39.15,92.35l100,0.49h0.14l0.16-0.03c7.7-1.8,13.2-6.68,16.38-14.51c0.2-0.49,0.39-0.98,0.58-1.5l0.08-0.21
		L251.27,352.63z M233.8,370.79l-95.93-0.47L175,282.73c1.82-0.44,3.62-0.85,5.43-1.22c23.7-5.03,45.98-4.65,67.9,1.11l0.34,74.06
		c-0.09,0.26-0.18,0.52-0.3,0.76C245.55,364.74,240.78,369.11,233.8,370.79z"/>
	<g>
		<path class="st8" d="M244.83,351.99c-9.94-5.04-19.88-7.49-30.38-7.49c-9.96,0-19.21,2.14-28.15,4.21
			c-8.65,1.99-17.59,4.05-26.73,4.05c-0.36,0-0.72,0-1.08-0.01l-3.75-0.07l27.96-71.34l1.4-0.28c10.17-2.02,20.23-3.05,29.91-3.05
			c11.03,0,21.61,1.25,32.33,3.83l1.99,0.48l0.33,71.6L244.83,351.99z"/>
		<path class="st9" d="M214.01,278.01c11.03,0,21.61,1.25,32.33,3.83l1.99,0.48l0.33,71.6l-3.82-1.94
			c-9.94-5.04-19.88-7.49-30.38-7.49c-9.96,0-19.21,2.14-28.15,4.21c-8.65,1.99-17.59,4.05-26.73,4.05c-0.36,0-0.72,0-1.08-0.01
			l-3.75-0.07l27.96-71.34l1.4-0.28C194.28,279.04,204.34,278.01,214.01,278.01 M214.01,275.42c-9.84,0-20.08,1.04-30.42,3.1
			l-1.4,0.28l-1.4,0.28l-0.52,1.32l-27.96,71.34l-1.36,3.46l3.74,0.07l3.75,0.07c0.37,0.01,0.75,0.01,1.13,0.01
			c9.43,0,18.52-2.09,27.31-4.11c8.81-2.04,17.91-4.14,27.57-4.14c10.07,0,19.62,2.36,29.19,7.2l3.82,1.94l3.82,1.94l-0.02-4.26
			l-0.33-71.6l-0.01-2.03l-1.99-0.48l-1.99-0.48C236.03,276.7,225.26,275.42,214.01,275.42L214.01,275.42z"/>
	</g>
	<path class="st9" d="M326.86,280.53l-0.64-0.16c-3.71-0.92-7.39-1.71-11.03-2.37c-22.64-4.12-44.08-3.33-65.21,2.37l-0.95,0.26
		l-0.35,76.27v0.23l0.07,0.21c0.18,0.52,0.38,1.02,0.58,1.52c3.19,7.82,8.68,12.69,16.38,14.49l0.16,0.03l100.16-0.49L326.86,280.53
		z M251.59,357.46c-0.12-0.25-0.21-0.51-0.3-0.76l0.34-74.06c21.92-5.76,44.2-6.14,67.9-1.11c1.8,0.36,3.61,0.78,5.42,1.22
		l37.13,87.59l-95.93,0.47C259.17,369.11,254.4,364.74,251.59,357.46z"/>
	<g>
		<path class="st8" d="M251.63,282.33l1.99-0.48c10.72-2.58,21.29-3.83,32.33-3.83c9.67,0,19.73,1.03,29.91,3.05l1.4,0.28
			l27.96,71.34l-3.74,0.07c-0.36,0.01-0.72,0.01-1.08,0.01c-9.15,0-18.04-2.05-26.63-4.03c-9-2.08-18.3-4.23-28.25-4.23
			c-10.5,0-20.44,2.45-30.38,7.49l-3.82,1.94L251.63,282.33z"/>
		<path class="st9" d="M285.95,278.01c9.67,0,19.73,1.03,29.91,3.05l1.4,0.28l27.96,71.34l-3.74,0.07
			c-0.36,0.01-0.72,0.01-1.08,0.01c-9.15,0-18.04-2.05-26.63-4.03c-9-2.08-18.3-4.23-28.25-4.23c-10.5,0-20.44,2.45-30.38,7.49
			l-3.82,1.94l0.33-71.6l1.99-0.48C264.34,279.27,274.91,278.01,285.95,278.01 M285.95,275.42c-11.25,0-22.02,1.28-32.94,3.91
			l-1.99,0.48l-1.99,0.48l-0.01,2.03l-0.33,71.6l-0.02,4.26l3.82-1.94l3.82-1.94c9.57-4.85,19.12-7.2,29.19-7.2
			c9.65,0,18.8,2.11,27.65,4.16c8.75,2.01,17.78,4.1,27.23,4.1c0.38,0,0.76,0,1.14-0.01l3.74-0.07l3.74-0.07l-1.36-3.46
			l-27.96-71.34l-0.52-1.32l-1.4-0.28l-1.4-0.28C306.02,276.47,295.79,275.42,285.95,275.42L285.95,275.42z"/>
	</g>
</g>
</svg>
